<?xml version="1.0" encoding="utf-8"?>
<!-- Generator: Adobe Illustrator 16.0.0, SVG Export Plug-In . SVG Version: 6.00 Build 0)  -->
<!DOCTYPE svg PUBLIC "-//W3C//DTD SVG 1.1//EN" "http://www.w3.org/Graphics/SVG/1.1/DTD/svg11.dtd">
<svg version="1.1" id="Layer_1" xmlns="http://www.w3.org/2000/svg" xmlns:xlink="http://www.w3.org/1999/xlink" x="0px" y="0px"
	 width="1169.999px" height="884.828px" viewBox="-304.683 0 1169.999 884.828"
	 enable-background="new -304.683 0 1169.999 884.828" xml:space="preserve">
<path opacity="0.75" fill="#4668FF" enable-background="new    " d="M118.957,280.328c0,28.062-40.086,50.81-68.146,50.81
	C22.748,331.138,0,308.39,0,280.328c0-28.063,22.748-50.811,50.811-50.811C78.871,229.518,118.957,252.266,118.957,280.328z"/>
<g opacity="0.75">
	<g>
		<path fill="#4668FF" d="M431.053,374.166c-15.301,22.515-30.602,45.029-45.902,67.545c-66.42-41.749-143.247-41.749-209.666,0
			c-15.302-22.515-30.601-45.031-45.904-67.545C223.53,313.784,337.103,313.779,431.053,374.166z"/>
	</g>
	<circle fill="#4668FF" cx="152.994" cy="407.58" r="40.797"/>
	<circle fill="#4668FF" cx="407.66" cy="407.673" r="40.797"/>
</g>
<g opacity="0.75">
	<g>
		<path fill="#4668FF" d="M374.152,129.71c22.514,15.302,45.03,30.602,67.545,45.903c-41.751,66.408-41.753,143.259,0,209.667
			c-22.518,15.298-45.028,30.604-67.545,45.901C313.766,337.232,313.771,223.662,374.152,129.71z"/>
	</g>
	<circle fill="#4668FF" cx="407.564" cy="407.769" r="40.797"/>
	<circle fill="#4668FF" cx="407.66" cy="153.103" r="40.797"/>
</g>
<g opacity="0.75">
	<g>
		<path fill="#4668FF" d="M129.602,186.514c15.301-22.515,30.602-45.03,45.902-67.545c66.414,41.748,143.252,41.751,209.666,0
			c15.3,22.515,30.602,45.03,45.902,67.545C337.124,246.896,223.55,246.898,129.602,186.514z"/>
	</g>
	<circle fill="#4668FF" cx="407.66" cy="153.102" r="40.797"/>
	<circle fill="#4668FF" cx="152.994" cy="153.006" r="40.797"/>
</g>
<g opacity="0.75">
	<g>
		<path fill="#4668FF" d="M186.502,431.064c-22.517-15.299-45.028-30.604-67.545-45.902c41.752-66.411,41.75-143.256,0-209.667
			c22.514-15.302,45.031-30.601,67.545-45.902C246.885,223.542,246.888,337.115,186.502,431.064z"/>
	</g>
	<circle fill="#4668FF" cx="153.09" cy="153.006" r="40.797"/>
	<circle fill="#4668FF" cx="152.994" cy="407.671" r="40.797"/>
</g>
<path opacity="0.75" fill="#4668FF" enable-background="new    " d="M441.697,280.326c0-28.061,40.086-50.809,68.146-50.809
	c28.063,0,50.812,22.748,50.812,50.809c0,28.063-22.748,50.812-50.812,50.812C481.783,331.138,441.697,308.39,441.697,280.326z"/>
<path opacity="0.75" fill="#4668FF" enable-background="new    " d="M280.336,118.959c-28.061,0-50.809-40.088-50.809-68.148
	C229.527,22.748,252.275,0,280.336,0c28.063,0,50.811,22.748,50.811,50.811C331.146,78.871,308.398,118.959,280.336,118.959z"/>
<path opacity="0.75" fill="#4668FF" enable-background="new    " d="M280.338,441.699c28.061,0,50.809,40.086,50.809,68.146
	c0,28.063-22.748,50.812-50.809,50.812c-28.063,0-50.811-22.748-50.811-50.812C229.527,481.785,252.275,441.699,280.338,441.699z"/>
<g>
	<g>
		<path fill="#474555" d="M-192.671,731.156c-14.15,0-26.205,4.52-36.157,13.563c-9.966,9.038-14.938,22.341-14.938,39.89
			c0,17.563,4.779,30.651,14.347,39.305c9.563,8.649,21.678,12.961,36.355,12.961c8.38,0,15.78-1.102,22.201-3.336
			c6.422-2.219,11.855-4.514,16.313-6.877c4.453,3.412,7.923,7.008,10.413,10.813c2.491,3.797,3.738,8.451,3.738,13.951
			c0,9.957-5.246,17.947-15.727,23.978c-10.479,6.014-25.023,9.036-43.621,9.036c-15.72,0-30.068-2.106-43.038-6.286
			c-12.97-4.193-24.039-10.48-33.21-18.863c-9.171-8.394-16.246-18.805-21.22-31.252c-4.979-12.443-7.469-26.928-7.469-43.43
			c0-17.027,2.749-31.832,8.25-44.414c5.506-12.576,12.973-23.051,22.403-31.439c9.436-8.385,20.437-14.672,33.013-18.863
			c12.581-4.187,25.806-6.289,39.694-6.289c18.083,0,32.287,3.277,42.646,9.825c10.346,6.548,15.521,14.806,15.521,24.759
			c0,4.719-1.115,9.037-3.339,12.969c-2.229,3.932-4.913,7.342-8.058,10.22c-4.717-2.617-10.286-4.974-16.701-7.076
			C-177.678,732.211-184.814,731.156-192.671,731.156z"/>
		<path fill="#474555" d="M61.612,867.541c-8.391,5.246-18.736,9.371-31.052,12.375c-12.316,3.006-25.938,4.525-40.871,4.525
			c-14.151,0-26.994-1.521-38.521-4.525c-11.528-3.004-21.414-7.789-29.671-14.338c-8.25-6.555-14.678-14.808-19.258-24.767
			c-4.584-9.95-6.875-22.012-6.875-36.161V690.286c2.878-0.788,6.68-1.575,11.395-2.356c4.72-0.787,9.954-1.181,15.72-1.181
			c11.794,0,20.244,1.962,25.352,5.894c5.107,3.933,7.663,11.401,7.663,22.401v89.218c0,11.787,3.01,20.238,9.037,25.353
			s14.544,7.664,25.552,7.664c6.809,0,12.507-0.589,17.095-1.775c4.58-1.176,8.058-2.42,10.413-3.725V690.286
			c2.617-0.788,6.288-1.575,11.007-2.356c4.712-0.787,9.953-1.181,15.72-1.181c11.789,0,20.3,1.962,25.545,5.894
			c5.24,3.933,7.863,11.401,7.863,22.401v124.194C77.727,851.558,72.354,860.984,61.612,867.541z"/>
		<path fill="#474555" d="M157.11,881.291c-11.791,0-20.241-1.908-25.348-5.701c-5.112-3.793-7.667-11.199-7.667-22.199V622.689
			c2.615-0.789,6.351-1.576,11.205-2.363c4.84-0.788,10.146-1.176,15.913-1.176c11.528,0,19.911,1.963,25.151,5.895
			c5.239,3.932,7.862,11.395,7.862,22.4v230.709c-2.882,0.787-6.682,1.502-11.4,2.162
			C168.115,880.957,162.869,881.291,157.11,881.291z"/>
		<path fill="#474555" d="M297.807,831.962c4.719,3.283,11.264,4.912,19.651,4.912c3.931,0,8.117-0.453,12.576-1.373
			c4.453-0.916,8.255-2.018,11.399-3.34c2.356,2.625,4.322,5.633,5.895,9.039c1.569,3.41,2.355,7.334,2.355,11.787
			c0,9.186-3.604,16.715-10.808,22.602c-7.208,5.902-19.716,8.853-37.533,8.853c-22.008,0-39.175-5.06-51.483-15.14
			c-12.321-10.08-18.471-26.524-18.471-49.313V643.516c2.877-0.789,6.677-1.631,11.395-2.558c4.72-0.915,9.826-1.375,15.327-1.375
			c11.526,0,19.851,2.036,24.957,6.094c5.113,4.063,7.664,11.468,7.664,22.208v25.544h54.239c1.306,2.623,2.617,5.96,3.926,10.021
			c1.312,4.063,1.968,8.322,1.968,12.775c0,8.389-1.901,14.411-5.7,18.076c-3.802,3.678-8.713,5.508-14.738,5.508h-39.694v76.24
			C290.732,823.384,293.094,828.699,297.807,831.962z"/>
		<path fill="#474555" d="M446.368,878.154c-2.621,0.787-6.292,1.502-11.004,2.162c-4.718,0.641-9.959,0.975-15.72,0.975
			c-11.796,0-20.245-1.908-25.353-5.701s-7.663-11.199-7.663-22.199V691.855c2.617-0.781,6.288-1.568,11.007-2.356
			c4.712-0.788,9.953-1.183,15.718-1.183c11.791,0,20.24,1.97,25.348,5.901c5.112,3.925,7.666,11.394,7.666,22.401L446.368,878.154
			L446.368,878.154z"/>
		<path fill="#474555" d="M641.303,685.566c8.117,0,14.992,1.836,20.631,5.508c5.629,3.67,8.451,9.822,8.451,18.47
			c0,3.933-0.983,9.825-2.951,17.683c-1.961,7.863-4.518,16.773-7.662,26.727c-3.145,9.965-6.748,20.634-10.807,32.031
			c-4.063,11.402-8.257,22.535-12.575,33.404c-4.325,10.888-8.59,21.025-12.775,30.463c-4.191,9.439-7.996,17.287-11.396,23.576
			c-3.146,2.363-7.929,4.398-14.348,6.101c-6.424,1.705-13.561,2.553-21.416,2.553c-9.177,0-17.038-1.176-23.583-3.539
			c-6.556-2.363-11.267-6.156-14.151-11.402c-2.355-4.45-5.177-10.61-8.449-18.461c-3.276-7.864-6.815-16.715-10.607-26.541
			c-3.804-9.824-7.666-20.293-11.598-31.438c-3.929-11.13-7.733-22.263-11.397-33.403c-3.67-11.134-7.075-21.747-10.22-31.839
			c-3.145-10.081-5.633-19.185-7.463-27.313c3.141-3.398,7.525-6.35,13.164-8.838c5.63-2.49,11.722-3.738,18.275-3.738
			c8.379,0,15.193,1.769,20.438,5.307c5.235,3.538,9.165,10.021,11.788,19.458l17.293,62.096c3.145,11.005,6.289,21.81,9.434,32.422
			c3.144,10.613,5.499,18.937,7.075,24.966h1.962c6.025-20.439,12.049-42.709,18.076-66.818c6.027-24.104,11.654-47.686,16.9-70.747
			C621.512,687.796,630.816,685.566,641.303,685.566z"/>
		<path fill="#474555" d="M774.924,683.605c13.619,0,25.994,1.375,37.142,4.125c11.127,2.75,20.627,7.015,28.487,12.775
			c7.863,5.768,13.953,13.104,18.275,22.008c4.326,8.911,6.488,19.391,6.488,31.438v88.825c0,6.819-1.771,12.248-5.301,16.313
			c-3.535,4.057-7.808,7.537-12.773,10.412c-8.123,4.988-18.078,8.785-29.877,11.402c-11.789,2.616-25.152,3.924-40.084,3.924
			c-26.992,0-48.479-5.172-64.453-15.525c-15.986-10.34-23.977-26.141-23.977-47.352c0-18.09,5.366-31.84,16.112-41.271
			c10.74-9.434,27.246-15.326,49.521-17.684l52.272-5.506v-4.319c0-8.384-3.405-14.544-10.221-18.476
			c-6.82-3.933-16.645-5.895-29.479-5.895c-9.957,0-19.718,1.182-29.275,3.538c-9.57,2.356-18.148,5.106-25.746,8.25
			c-3.143-2.089-5.832-5.306-8.055-9.625c-2.23-4.325-3.34-8.972-3.34-13.951c0-11.528,6.021-19.784,18.078-24.764
			c7.596-2.877,16.438-5.04,26.524-6.481C755.336,684.324,765.227,683.605,774.924,683.605z M777.281,840.414
			c5.76,0,11.461-0.588,17.094-1.762c5.629-1.177,9.895-2.691,12.777-4.525v-36.152l-32.229,2.75
			c-8.389,0.787-15.133,2.683-20.242,5.699c-5.108,3.012-7.663,7.537-7.663,13.564c0,6.289,2.356,11.26,7.075,14.926
			C758.813,838.584,766.535,840.414,777.281,840.414z"/>
	</g>
	<path opacity="0.75" fill="#4668FF" enable-background="new    " d="M416.5,675.691c-19.729,0-35.711-28.174-35.711-47.895
		c0-19.722,15.984-35.711,35.711-35.711c19.722,0,35.711,15.989,35.711,35.711C452.211,647.518,436.222,675.691,416.5,675.691z"/>
</g>
<g>
	<path fill="none" d="M226.293,226.23c7.337,35.755,7.336,72.34-0.003,108.094c35.747-7.334,72.323-7.336,108.07-0.002
		c-7.322-35.756-7.305-72.34,0.048-108.094C298.646,233.57,262.055,233.57,226.293,226.23z"/>
	<path fill="#4668FF" d="M118.967,385.102c0.159-0.254,0.312-0.508,0.47-0.762c-4.555,6.584-7.23,14.568-7.23,23.18
		c0,0.016,0.001,0.029,0.001,0.045c0.009-8.301,2.502-16.018,6.769-22.457C118.974,385.105,118.971,385.104,118.967,385.102z"/>
	<path fill="#4668FF" d="M441.64,385.266c4.251,6.439,6.732,14.148,6.732,22.441c0,11.238-4.544,21.412-11.894,28.791
		c7.406-7.387,11.989-17.602,11.989-28.887c0-8.684-2.721-16.727-7.346-23.342c0.197,0.316,0.388,0.635,0.586,0.949
		C441.685,385.234,441.662,385.25,441.64,385.266z"/>
	<path fill="#4668FF" d="M374.162,431.121c0.002-0.002,0.005-0.004,0.007-0.006c-0.031-0.045-0.063-0.088-0.094-0.133
		C374.104,431.029,374.133,431.074,374.162,431.121z"/>
	<path fill="#4668FF" d="M366.777,407.707c0-11.291,4.588-21.51,12-28.896c7.387-7.408,17.604-11.996,28.893-11.996
		c8.687,0,16.734,2.725,23.351,7.352c0.014-0.02,0.028-0.041,0.042-0.061c-30.604-19.672-63.291-32.928-96.703-39.783
		c6.608,32.271,19.197,63.863,37.761,93.561C368.727,421.932,366.777,415.049,366.777,407.707z"/>
	<path fill="#4668FF" d="M431.021,374.166c-0.025,0.037-0.05,0.074-0.075,0.111c4.219,2.955,7.853,6.686,10.694,10.988
		c0.022-0.016,0.045-0.031,0.068-0.047c-0.198-0.314-0.389-0.633-0.586-0.949C438.374,380.34,434.952,376.916,431.021,374.166z"/>
	<path fill="#4668FF" d="M378.777,378.811c7.379-7.354,17.557-11.9,28.797-11.9c8.696,0,16.75,2.73,23.371,7.367
		c0.025-0.037,0.05-0.074,0.075-0.111c-6.617-4.627-14.664-7.352-23.351-7.352C396.381,366.814,386.164,371.402,378.777,378.811z"/>
	<path fill="#4668FF" d="M385.168,441.639c-0.002,0.004-0.005,0.008-0.007,0.012c-0.603-0.379-1.208-0.746-1.812-1.119
		c6.775,5.01,15.153,7.975,24.225,7.975c11.294,0,21.516-4.592,28.903-12.008c-7.38,7.359-17.562,11.91-28.808,11.91
		C399.352,448.408,391.62,445.914,385.168,441.639z"/>
	<path fill="#4668FF" d="M385.168,441.639c-4.259-2.822-7.953-6.424-10.888-10.598c-0.037,0.023-0.074,0.049-0.111,0.074
		c2.535,3.611,5.635,6.795,9.18,9.416c0.604,0.373,1.209,0.74,1.812,1.119C385.164,441.646,385.166,441.643,385.168,441.639z"/>
	<path fill="#4668FF" d="M374.075,430.982c-0.661-1.029-1.308-2.064-1.955-3.1C372.727,428.947,373.378,429.982,374.075,430.982z"/>
	<path fill="#4668FF" d="M441.64,385.266c-11.25,7.643-22.497,15.287-33.745,22.932c-7.576,11.146-15.151,22.295-22.727,33.441
		c6.451,4.275,14.184,6.77,22.502,6.77c11.246,0,21.428-4.551,28.808-11.91c7.35-7.379,11.894-17.553,11.894-28.791
		C448.372,399.414,445.891,391.705,441.64,385.266z"/>
	<path fill="#4668FF" d="M385.168,441.639c7.575-11.146,15.151-22.295,22.727-33.441c-11.205,7.615-22.409,15.23-33.615,22.844
		C377.216,435.215,380.91,438.816,385.168,441.639z"/>
	<path fill="#4668FF" d="M378.777,378.811c-7.412,7.387-12,17.605-12,28.896c0,7.342,1.949,14.225,5.343,20.176
		c0.646,1.035,1.293,2.07,1.955,3.1c0.031,0.045,0.063,0.088,0.094,0.133c0.037-0.025,0.074-0.051,0.111-0.074
		c-4.662-6.633-7.407-14.707-7.407-23.43C366.873,396.369,371.421,386.189,378.777,378.811z"/>
	<path fill="#4668FF" d="M441.64,385.266c-2.841-4.303-6.475-8.033-10.694-10.988c-7.684,11.307-15.367,22.613-23.051,33.92
		C419.143,400.553,430.39,392.908,441.64,385.266z"/>
	<path fill="#4668FF" d="M378.777,378.811c-7.356,7.379-11.904,17.559-11.904,28.801c0,8.723,2.746,16.797,7.407,23.43
		c11.206-7.613,22.41-15.229,33.615-22.844c7.684-11.307,15.367-22.613,23.051-33.92c-6.621-4.637-14.675-7.367-23.371-7.367
		C396.334,366.91,386.156,371.457,378.777,378.811z"/>
	<path fill="#4668FF" d="M448.467,153.042c0,8.319-2.496,16.052-6.771,22.503c0,0,0,0,0,0
		C445.972,169.094,448.467,161.361,448.467,153.042L448.467,153.042z"/>
	<path fill="#4668FF" d="M431.078,186.446C431.078,186.446,431.078,186.447,431.078,186.446c4.185-2.937,7.792-6.636,10.619-10.901
		c0,0,0,0,0,0C438.87,179.811,435.262,183.509,431.078,186.446z"/>
	<path fill="#4668FF" d="M427.84,188.498c-0.006,0.004-0.012,0.008-0.018,0.012c1.077-0.613,2.124-1.272,3.137-1.979
		c-0.004,0.003-0.008,0.006-0.012,0.008C429.943,187.238,428.906,187.891,427.84,188.498z"/>
	<path fill="#4668FF" d="M431.083,186.453c-0.001-0.002-0.003-0.004-0.004-0.006c-0.04,0.027-0.079,0.057-0.119,0.084
		C431,186.506,431.042,186.48,431.083,186.453z"/>
	<path fill="#4668FF" d="M366.873,153.042L366.873,153.042L366.873,153.042c0-8.688,2.724-16.734,7.351-23.351
		c-0.021-0.014-0.041-0.028-0.062-0.042c-19.645,30.567-32.892,63.211-39.754,96.579c32.22-6.613,63.762-19.188,93.415-37.719
		c-5.946,3.386-12.82,5.33-20.152,5.33C385.139,193.84,366.873,175.574,366.873,153.042z"/>
	<path fill="#4668FF" d="M430.959,186.531c0.04-0.027,0.079-0.057,0.119-0.084c0,0,0-0.001,0-0.001
		c-0.044,0.03-0.087,0.063-0.131,0.093C430.951,186.537,430.955,186.534,430.959,186.531z"/>
	<path fill="#4668FF" d="M407.67,193.838c-22.532,0-40.797-18.265-40.797-40.796v0c0,22.532,18.266,40.797,40.797,40.797
		c7.332,0,14.206-1.944,20.152-5.33c0.006-0.004,0.012-0.008,0.018-0.012C421.89,191.891,415.01,193.838,407.67,193.838z"/>
	<path fill="#4668FF" d="M407.67,112.246c22.531,0,40.797,18.265,40.797,40.796v0C448.467,130.51,430.202,112.245,407.67,112.246
		c-8.293-0.001-16.004,2.48-22.443,6.731c0,0,0,0,0,0C391.667,114.727,399.377,112.246,407.67,112.246z"/>
	<path fill="#4668FF" d="M407.67,112.246c-8.293,0-16.004,2.481-22.443,6.732c7.657,11.268,15.314,22.535,22.971,33.803
		c11.166,7.588,22.332,15.176,33.498,22.765c4.275-6.451,6.771-14.184,6.771-22.503C448.467,130.511,430.202,112.246,407.67,112.246
		z"/>
	<path fill="#4668FF" d="M427.84,188.498c1.066-0.607,2.104-1.26,3.107-1.959C429.914,187.202,428.877,187.85,427.84,188.498z"/>
	<path fill="#4668FF" d="M431.078,186.446c4.184-2.938,7.792-6.636,10.619-10.901c-11.166-7.588-22.332-15.177-33.498-22.765
		C415.825,164.002,423.451,175.225,431.078,186.446z"/>
	<path fill="#4668FF" d="M374.224,129.692C374.225,129.692,374.225,129.692,374.224,129.692c2.958-4.228,6.693-7.869,11.003-10.714
		c0,0,0,0,0,0C380.917,121.822,377.182,125.464,374.224,129.692z"/>
	<path fill="#4668FF" d="M366.873,153.042c0-8.687,2.724-16.733,7.352-23.35c0,0,0,0-0.001,0
		C369.597,136.308,366.873,144.354,366.873,153.042L366.873,153.042z"/>
	<path fill="#4668FF" d="M385.228,118.978c-4.311,2.846-8.045,6.486-11.002,10.714c11.324,7.697,22.649,15.393,33.974,23.088
		C400.542,141.513,392.884,130.245,385.228,118.978z"/>
	<path fill="#4668FF" d="M374.225,129.692c-4.628,6.617-7.352,14.663-7.352,23.35c0,22.531,18.266,40.796,40.797,40.796
		c7.339,0,14.219-1.947,20.169-5.34c1.037-0.648,2.074-1.296,3.107-1.959c0.044-0.03,0.087-0.063,0.131-0.093
		c-7.626-11.222-15.252-22.444-22.879-33.666C396.874,145.084,385.549,137.389,374.225,129.692z"/>
	<path fill="#4668FF" d="M112.303,152.945c0-22.515,18.24-40.77,40.749-40.796c-0.016,0-0.032-0.001-0.048-0.001
		c-22.532,0-40.797,18.266-40.797,40.797c0,8.313,2.492,16.04,6.761,22.488c0.022-0.016,0.045-0.03,0.067-0.045
		C114.785,168.949,112.303,161.239,112.303,152.945z"/>
	<path fill="#4668FF" d="M153.004,366.723c22.531,0,40.797,18.266,40.797,40.797c0,0.016-0.001,0.029-0.001,0.045
		s0.001,0.029,0.001,0.045c0,8.688-2.724,16.734-7.352,23.352c0.021,0.014,0.042,0.027,0.063,0.043
		c19.666-30.598,32.921-63.275,39.778-96.68c-32.25,6.617-63.822,19.207-93.5,37.764C138.75,368.68,145.647,366.723,153.004,366.723
		z"/>
	<path fill="#4668FF" d="M129.591,374.105c0.002,0.002,0.004,0.006,0.006,0.008c0.054-0.037,0.107-0.076,0.161-0.113
		C129.703,374.035,129.647,374.068,129.591,374.105z"/>
	<path fill="#4668FF" d="M129.758,374c1.008-0.646,2.02-1.279,3.032-1.912C131.75,372.682,130.738,373.318,129.758,374z"/>
	<path fill="#4668FF" d="M118.977,385.107c2.836-4.279,6.459-7.99,10.662-10.932c-0.014-0.021-0.028-0.041-0.042-0.063
		c-3.961,2.781-7.406,6.246-10.161,10.227c-0.158,0.254-0.311,0.508-0.47,0.762C118.971,385.104,118.974,385.105,118.977,385.107z"
		/>
	<path fill="#4668FF" d="M193.8,407.564c0-0.016,0.001-0.029,0.001-0.045c0-22.531-18.266-40.797-40.797-40.797
		c-7.357,0-14.254,1.957-20.214,5.365c-1.012,0.633-2.024,1.266-3.032,1.912c-0.054,0.037-0.107,0.076-0.161,0.113
		c0.014,0.021,0.028,0.041,0.042,0.063c6.619-4.635,14.671-7.363,23.365-7.363C175.521,366.813,193.775,385.055,193.8,407.564z"/>
	<path fill="#4668FF" d="M193.897,152.945c0,22.531-18.266,40.797-40.797,40.797c-0.016,0-0.032-0.001-0.048-0.001
		s-0.032,0.001-0.048,0.001c-8.687,0-16.733-2.723-23.35-7.352c-0.014,0.021-0.028,0.042-0.042,0.063
		c30.597,19.666,63.276,32.922,96.681,39.777c-6.614-32.235-19.196-63.793-37.738-93.459
		C191.949,138.723,193.897,145.604,193.897,152.945z"/>
	<path fill="#4668FF" d="M186.512,129.532c-0.002,0.002-0.005,0.003-0.008,0.005c0.032,0.045,0.064,0.089,0.096,0.135
		C186.571,129.626,186.542,129.579,186.512,129.532z"/>
	<path fill="#4668FF" d="M129.655,186.391c0.01-0.015,0.021-0.03,0.031-0.045c-4.201-2.951-7.819-6.669-10.65-10.957
		c-0.022,0.015-0.045,0.029-0.067,0.045C121.81,179.725,125.441,183.443,129.655,186.391z"/>
	<path fill="#4668FF" d="M153.052,193.741c-8.697-0.011-16.75-2.749-23.366-7.396c-0.01,0.015-0.021,0.03-0.031,0.045
		c6.616,4.629,14.663,7.352,23.35,7.352C153.021,193.742,153.036,193.741,153.052,193.741z"/>
	<path fill="#4668FF" d="M175.514,118.908c0.262,0.165,0.525,0.323,0.788,0.486c-6.588-4.564-14.58-7.246-23.202-7.246
		c-0.016,0-0.032,0.001-0.048,0.001c8.3,0.01,16.016,2.503,22.455,6.77C175.509,118.916,175.512,118.912,175.514,118.908z"/>
	<path fill="#4668FF" d="M175.507,118.919c4.281,2.836,7.991,6.46,10.933,10.663c0.021-0.015,0.043-0.029,0.064-0.044
		c-2.775-3.954-6.231-7.392-10.202-10.143c-0.263-0.164-0.526-0.322-0.788-0.486C175.512,118.912,175.509,118.916,175.507,118.919z"
		/>
	<path fill="#4668FF" d="M186.601,129.672c0.661,1.03,1.308,2.065,1.955,3.099C187.949,131.708,187.297,130.673,186.601,129.672z"/>
	<path fill="#4668FF" d="M112.303,152.945c0,8.293,2.481,16.004,6.732,22.443c11.208-7.618,22.417-15.235,33.625-22.852
		c7.615-11.206,15.231-22.412,22.846-33.618c-6.438-4.267-14.154-6.76-22.455-6.77C130.543,112.176,112.303,130.43,112.303,152.945z
		"/>
	<path fill="#4668FF" d="M175.507,118.919c-7.615,11.206-15.23,22.412-22.846,33.618c11.26-7.651,22.52-15.303,33.779-22.955
		C183.498,125.379,179.788,121.755,175.507,118.919z"/>
	<path fill="#4668FF" d="M153.052,193.741c0.016,0,0.032,0.001,0.048,0.001c22.532,0,40.797-18.266,40.797-40.797
		c0-7.341-1.949-14.223-5.342-20.174c-0.646-1.034-1.293-2.069-1.955-3.099c-0.032-0.045-0.064-0.09-0.096-0.135
		c-0.021,0.015-0.043,0.029-0.064,0.044c4.634,6.619,7.361,14.67,7.361,23.364C193.801,175.461,175.562,193.715,153.052,193.741z"/>
	<path fill="#4668FF" d="M119.036,175.389c2.831,4.288,6.45,8.006,10.65,10.957c7.658-11.27,15.316-22.54,22.975-33.809
		C141.452,160.154,130.244,167.771,119.036,175.389z"/>
	<path fill="#4668FF" d="M193.801,152.945c0-8.693-2.728-16.745-7.361-23.364c-11.259,7.652-22.519,15.304-33.779,22.955
		c-7.659,11.27-15.317,22.54-22.975,33.809c6.616,4.646,14.669,7.385,23.366,7.396C175.562,193.715,193.801,175.461,193.801,152.945
		z"/>
	<path fill="#4668FF" d="M153.004,448.316c-22.517,0-40.771-18.242-40.796-40.752c0,0.016-0.001,0.029-0.001,0.045
		c0,22.531,18.266,40.797,40.797,40.797c8.313,0,16.04-2.492,22.488-6.76c-0.014-0.021-0.029-0.043-0.043-0.064
		C169.01,445.834,161.298,448.316,153.004,448.316z"/>
	<path fill="#4668FF" d="M186.449,430.961c-0.015-0.01-0.029-0.02-0.043-0.029c-2.95,4.201-6.668,7.82-10.957,10.65
		c0.014,0.021,0.029,0.043,0.043,0.064C179.783,438.805,183.502,435.174,186.449,430.961z"/>
	<path fill="#4668FF" d="M153.004,448.316c8.294,0,16.005-2.482,22.445-6.734c-7.618-11.209-15.236-22.418-22.854-33.627
		c-11.206-7.617-22.411-15.232-33.618-22.848c-4.267,6.439-6.76,14.156-6.769,22.457
		C112.233,430.074,130.488,448.316,153.004,448.316z"/>
	<path fill="#4668FF" d="M175.449,441.582c4.288-2.83,8.006-6.449,10.957-10.65c-11.271-7.658-22.541-15.318-33.811-22.977
		C160.213,419.164,167.831,430.373,175.449,441.582z"/>
	<path fill="#4668FF" d="M193.8,407.564c-0.01,8.697-2.748,16.75-7.395,23.367c0.014,0.01,0.029,0.02,0.043,0.029
		c4.628-6.617,7.352-14.664,7.352-23.352C193.801,407.594,193.8,407.58,193.8,407.564z"/>
	<path fill="#4668FF" d="M118.977,385.107c11.207,7.615,22.413,15.23,33.618,22.848c-7.652-11.262-15.303-22.521-22.956-33.779
		C125.437,377.117,121.813,380.828,118.977,385.107z"/>
	<path fill="#4668FF" d="M153.004,366.813c-8.694,0-16.746,2.729-23.365,7.363c7.653,11.258,15.304,22.518,22.956,33.779
		c11.27,7.658,22.539,15.318,33.811,22.977c4.646-6.617,7.385-14.67,7.395-23.367C193.775,385.055,175.521,366.813,153.004,366.813z
		"/>
</g>
</svg>
