<?xml version="1.0" encoding="utf-8"?>
<!-- Generator: Adobe Illustrator 16.0.0, SVG Export Plug-In . SVG Version: 6.00 Build 0)  -->
<!DOCTYPE svg PUBLIC "-//W3C//DTD SVG 1.1//EN" "http://www.w3.org/Graphics/SVG/1.1/DTD/svg11.dtd">
<svg version="1.1" id="Layer_1" xmlns="http://www.w3.org/2000/svg" xmlns:xlink="http://www.w3.org/1999/xlink" x="0px" y="0px"
	 width="560.654px" height="560.656px" viewBox="0 0 560.654 560.656" enable-background="new 0 0 560.654 560.656"
	 xml:space="preserve">
<path opacity="0.75" fill="#4668FF" enable-background="new    " d="M118.957,280.328c0,28.062-40.086,50.81-68.146,50.81
	C22.748,331.138,0,308.39,0,280.328c0-28.063,22.748-50.811,50.811-50.811C78.871,229.518,118.957,252.266,118.957,280.328z"/>
<g opacity="0.75">
	<g>
		<path fill="#4668FF" d="M431.053,374.166c-15.301,22.515-30.602,45.029-45.902,67.545c-66.42-41.749-143.247-41.749-209.666,0
			c-15.302-22.515-30.601-45.031-45.904-67.545C223.53,313.784,337.103,313.779,431.053,374.166z"/>
	</g>
	<circle fill="#4668FF" cx="152.994" cy="407.58" r="40.797"/>
	<circle fill="#4668FF" cx="407.66" cy="407.673" r="40.797"/>
</g>
<g opacity="0.75">
	<g>
		<path fill="#4668FF" d="M374.152,129.71c22.514,15.302,45.03,30.602,67.545,45.903c-41.751,66.408-41.753,143.259,0,209.667
			c-22.518,15.298-45.028,30.604-67.545,45.901C313.766,337.232,313.771,223.662,374.152,129.71z"/>
	</g>
	<circle fill="#4668FF" cx="407.564" cy="407.769" r="40.797"/>
	<circle fill="#4668FF" cx="407.66" cy="153.103" r="40.797"/>
</g>
<g opacity="0.75">
	<g>
		<path fill="#4668FF" d="M129.602,186.514c15.301-22.515,30.602-45.03,45.902-67.545c66.414,41.748,143.252,41.751,209.666,0
			c15.3,22.515,30.602,45.03,45.902,67.545C337.124,246.896,223.55,246.898,129.602,186.514z"/>
	</g>
	<circle fill="#4668FF" cx="407.66" cy="153.102" r="40.797"/>
	<circle fill="#4668FF" cx="152.994" cy="153.006" r="40.797"/>
</g>
<g opacity="0.75">
	<g>
		<path fill="#4668FF" d="M186.502,431.064c-22.517-15.299-45.028-30.604-67.545-45.902c41.752-66.411,41.75-143.256,0-209.667
			c22.514-15.302,45.031-30.601,67.545-45.902C246.885,223.542,246.888,337.115,186.502,431.064z"/>
	</g>
	<circle fill="#4668FF" cx="153.09" cy="153.006" r="40.797"/>
	<circle fill="#4668FF" cx="152.994" cy="407.671" r="40.797"/>
</g>
<path opacity="0.75" fill="#4668FF" enable-background="new    " d="M441.697,280.326c0-28.061,40.086-50.809,68.146-50.809
	c28.063,0,50.812,22.748,50.812,50.809c0,28.063-22.748,50.812-50.812,50.812C481.783,331.138,441.697,308.39,441.697,280.326z"/>
<path opacity="0.75" fill="#4668FF" enable-background="new    " d="M280.336,118.959c-28.061,0-50.809-40.088-50.809-68.148
	C229.527,22.748,252.275,0,280.336,0c28.063,0,50.811,22.748,50.811,50.811C331.146,78.871,308.398,118.959,280.336,118.959z"/>
<path opacity="0.75" fill="#4668FF" enable-background="new    " d="M280.338,441.699c28.061,0,50.809,40.086,50.809,68.146
	c0,28.063-22.748,50.812-50.809,50.812c-28.063,0-50.811-22.748-50.811-50.812C229.527,481.785,252.275,441.699,280.338,441.699z"/>
<g>
	<path fill="none" d="M226.293,226.23c7.337,35.755,7.336,72.34-0.003,108.094c35.747-7.334,72.323-7.336,108.07-0.002
		c-7.322-35.756-7.305-72.34,0.048-108.094C298.646,233.57,262.055,233.57,226.293,226.23z"/>
	<path fill="#4668FF" d="M118.967,385.102c0.159-0.254,0.312-0.508,0.47-0.762c-4.555,6.584-7.23,14.568-7.23,23.18
		c0,0.016,0.001,0.029,0.001,0.045c0.009-8.301,2.502-16.018,6.769-22.457C118.974,385.105,118.971,385.104,118.967,385.102z"/>
	<path fill="#4668FF" d="M441.64,385.266c4.251,6.439,6.732,14.148,6.732,22.441c0,11.238-4.544,21.412-11.894,28.791
		c7.406-7.387,11.989-17.602,11.989-28.887c0-8.684-2.721-16.727-7.346-23.342c0.197,0.316,0.388,0.635,0.586,0.949
		C441.685,385.234,441.662,385.25,441.64,385.266z"/>
	<path fill="#4668FF" d="M374.162,431.121c0.002-0.002,0.005-0.004,0.007-0.006c-0.031-0.045-0.063-0.088-0.094-0.133
		C374.104,431.029,374.133,431.074,374.162,431.121z"/>
	<path fill="#4668FF" d="M366.777,407.707c0-11.291,4.588-21.51,12-28.896c7.387-7.408,17.604-11.996,28.893-11.996
		c8.687,0,16.734,2.725,23.351,7.352c0.014-0.02,0.028-0.041,0.042-0.061c-30.604-19.672-63.291-32.928-96.703-39.783
		c6.608,32.271,19.197,63.863,37.761,93.561C368.727,421.932,366.777,415.049,366.777,407.707z"/>
	<path fill="#4668FF" d="M431.021,374.166c-0.025,0.037-0.05,0.074-0.075,0.111c4.219,2.955,7.853,6.686,10.694,10.988
		c0.022-0.016,0.045-0.031,0.068-0.047c-0.198-0.314-0.389-0.633-0.586-0.949C438.374,380.34,434.952,376.916,431.021,374.166z"/>
	<path fill="#4668FF" d="M378.777,378.811c7.379-7.354,17.557-11.9,28.797-11.9c8.696,0,16.75,2.73,23.371,7.367
		c0.025-0.037,0.05-0.074,0.075-0.111c-6.617-4.627-14.664-7.352-23.351-7.352C396.381,366.814,386.164,371.402,378.777,378.811z"/>
	<path fill="#4668FF" d="M385.168,441.639c-0.002,0.004-0.005,0.008-0.007,0.012c-0.603-0.379-1.208-0.746-1.812-1.119
		c6.775,5.01,15.153,7.975,24.225,7.975c11.294,0,21.516-4.592,28.903-12.008c-7.38,7.359-17.562,11.91-28.808,11.91
		C399.352,448.408,391.62,445.914,385.168,441.639z"/>
	<path fill="#4668FF" d="M385.168,441.639c-4.259-2.822-7.953-6.424-10.888-10.598c-0.037,0.023-0.074,0.049-0.111,0.074
		c2.535,3.611,5.635,6.795,9.18,9.416c0.604,0.373,1.209,0.74,1.812,1.119C385.164,441.646,385.166,441.643,385.168,441.639z"/>
	<path fill="#4668FF" d="M374.075,430.982c-0.661-1.029-1.308-2.064-1.955-3.1C372.727,428.947,373.378,429.982,374.075,430.982z"/>
	<path fill="#4668FF" d="M441.64,385.266c-11.25,7.643-22.497,15.287-33.745,22.932c-7.576,11.146-15.151,22.295-22.727,33.441
		c6.451,4.275,14.184,6.77,22.502,6.77c11.246,0,21.428-4.551,28.808-11.91c7.35-7.379,11.894-17.553,11.894-28.791
		C448.372,399.414,445.891,391.705,441.64,385.266z"/>
	<path fill="#4668FF" d="M385.168,441.639c7.575-11.146,15.151-22.295,22.727-33.441c-11.205,7.615-22.409,15.23-33.615,22.844
		C377.216,435.215,380.91,438.816,385.168,441.639z"/>
	<path fill="#4668FF" d="M378.777,378.811c-7.412,7.387-12,17.605-12,28.896c0,7.342,1.949,14.225,5.343,20.176
		c0.646,1.035,1.293,2.07,1.955,3.1c0.031,0.045,0.063,0.088,0.094,0.133c0.037-0.025,0.074-0.051,0.111-0.074
		c-4.662-6.633-7.407-14.707-7.407-23.43C366.873,396.369,371.421,386.189,378.777,378.811z"/>
	<path fill="#4668FF" d="M441.64,385.266c-2.841-4.303-6.475-8.033-10.694-10.988c-7.684,11.307-15.367,22.613-23.051,33.92
		C419.143,400.553,430.39,392.908,441.64,385.266z"/>
	<path fill="#4668FF" d="M378.777,378.811c-7.356,7.379-11.904,17.559-11.904,28.801c0,8.723,2.746,16.797,7.407,23.43
		c11.206-7.613,22.41-15.229,33.615-22.844c7.684-11.307,15.367-22.613,23.051-33.92c-6.621-4.637-14.675-7.367-23.371-7.367
		C396.334,366.91,386.156,371.457,378.777,378.811z"/>
	<path fill="#4668FF" d="M448.467,153.042c0,8.319-2.496,16.052-6.771,22.503c0,0,0,0,0,0
		C445.972,169.094,448.467,161.361,448.467,153.042L448.467,153.042z"/>
	<path fill="#4668FF" d="M431.078,186.446C431.078,186.446,431.078,186.447,431.078,186.446c4.185-2.937,7.792-6.636,10.619-10.901
		c0,0,0,0,0,0C438.87,179.811,435.262,183.509,431.078,186.446z"/>
	<path fill="#4668FF" d="M427.84,188.498c-0.006,0.004-0.012,0.008-0.018,0.012c1.077-0.613,2.124-1.272,3.137-1.979
		c-0.004,0.003-0.008,0.006-0.012,0.008C429.943,187.238,428.906,187.891,427.84,188.498z"/>
	<path fill="#4668FF" d="M431.083,186.453c-0.001-0.002-0.003-0.004-0.004-0.006c-0.04,0.027-0.079,0.057-0.119,0.084
		C431,186.506,431.042,186.48,431.083,186.453z"/>
	<path fill="#4668FF" d="M366.873,153.042L366.873,153.042L366.873,153.042c0-8.688,2.724-16.734,7.351-23.351
		c-0.021-0.014-0.041-0.028-0.062-0.042c-19.645,30.567-32.892,63.211-39.754,96.579c32.22-6.613,63.762-19.188,93.415-37.719
		c-5.946,3.386-12.82,5.33-20.152,5.33C385.139,193.84,366.873,175.574,366.873,153.042z"/>
	<path fill="#4668FF" d="M430.959,186.531c0.04-0.027,0.079-0.057,0.119-0.084c0,0,0-0.001,0-0.001
		c-0.044,0.03-0.087,0.063-0.131,0.093C430.951,186.537,430.955,186.534,430.959,186.531z"/>
	<path fill="#4668FF" d="M407.67,193.838c-22.532,0-40.797-18.265-40.797-40.796v0c0,22.532,18.266,40.797,40.797,40.797
		c7.332,0,14.206-1.944,20.152-5.33c0.006-0.004,0.012-0.008,0.018-0.012C421.89,191.891,415.01,193.838,407.67,193.838z"/>
	<path fill="#4668FF" d="M407.67,112.246c22.531,0,40.797,18.265,40.797,40.796v0C448.467,130.51,430.202,112.245,407.67,112.246
		c-8.293-0.001-16.004,2.48-22.443,6.731c0,0,0,0,0,0C391.667,114.727,399.377,112.246,407.67,112.246z"/>
	<path fill="#4668FF" d="M407.67,112.246c-8.293,0-16.004,2.481-22.443,6.732c7.657,11.268,15.314,22.535,22.971,33.803
		c11.166,7.588,22.332,15.176,33.498,22.765c4.275-6.451,6.771-14.184,6.771-22.503C448.467,130.511,430.202,112.246,407.67,112.246
		z"/>
	<path fill="#4668FF" d="M427.84,188.498c1.066-0.607,2.104-1.26,3.107-1.959C429.914,187.202,428.877,187.85,427.84,188.498z"/>
	<path fill="#4668FF" d="M431.078,186.446c4.184-2.938,7.792-6.636,10.619-10.901c-11.166-7.588-22.332-15.177-33.498-22.765
		C415.825,164.002,423.451,175.225,431.078,186.446z"/>
	<path fill="#4668FF" d="M374.224,129.692C374.225,129.692,374.225,129.692,374.224,129.692c2.958-4.228,6.693-7.869,11.003-10.714
		c0,0,0,0,0,0C380.917,121.822,377.182,125.464,374.224,129.692z"/>
	<path fill="#4668FF" d="M366.873,153.042c0-8.687,2.724-16.733,7.352-23.35c0,0,0,0-0.001,0
		C369.597,136.308,366.873,144.354,366.873,153.042L366.873,153.042z"/>
	<path fill="#4668FF" d="M385.228,118.978c-4.311,2.846-8.045,6.486-11.002,10.714c11.324,7.697,22.649,15.393,33.974,23.088
		C400.542,141.513,392.884,130.245,385.228,118.978z"/>
	<path fill="#4668FF" d="M374.225,129.692c-4.628,6.617-7.352,14.663-7.352,23.35c0,22.531,18.266,40.796,40.797,40.796
		c7.339,0,14.219-1.947,20.169-5.34c1.037-0.648,2.074-1.296,3.107-1.959c0.044-0.03,0.087-0.063,0.131-0.093
		c-7.626-11.222-15.252-22.444-22.879-33.666C396.874,145.084,385.549,137.389,374.225,129.692z"/>
	<path fill="#4668FF" d="M112.303,152.945c0-22.515,18.24-40.77,40.749-40.796c-0.016,0-0.032-0.001-0.048-0.001
		c-22.532,0-40.797,18.266-40.797,40.797c0,8.313,2.492,16.04,6.761,22.488c0.022-0.016,0.045-0.03,0.067-0.045
		C114.785,168.949,112.303,161.239,112.303,152.945z"/>
	<path fill="#4668FF" d="M153.004,366.723c22.531,0,40.797,18.266,40.797,40.797c0,0.016-0.001,0.029-0.001,0.045
		s0.001,0.029,0.001,0.045c0,8.688-2.724,16.734-7.352,23.352c0.021,0.014,0.042,0.027,0.063,0.043
		c19.666-30.598,32.921-63.275,39.778-96.68c-32.25,6.617-63.822,19.207-93.5,37.764C138.75,368.68,145.647,366.723,153.004,366.723
		z"/>
	<path fill="#4668FF" d="M129.591,374.105c0.002,0.002,0.004,0.006,0.006,0.008c0.054-0.037,0.107-0.076,0.161-0.113
		C129.703,374.035,129.647,374.068,129.591,374.105z"/>
	<path fill="#4668FF" d="M129.758,374c1.008-0.646,2.02-1.279,3.032-1.912C131.75,372.682,130.738,373.318,129.758,374z"/>
	<path fill="#4668FF" d="M118.977,385.107c2.836-4.279,6.459-7.99,10.662-10.932c-0.014-0.021-0.028-0.041-0.042-0.063
		c-3.961,2.781-7.406,6.246-10.161,10.227c-0.158,0.254-0.311,0.508-0.47,0.762C118.971,385.104,118.974,385.105,118.977,385.107z"
		/>
	<path fill="#4668FF" d="M193.8,407.564c0-0.016,0.001-0.029,0.001-0.045c0-22.531-18.266-40.797-40.797-40.797
		c-7.357,0-14.254,1.957-20.214,5.365c-1.012,0.633-2.024,1.266-3.032,1.912c-0.054,0.037-0.107,0.076-0.161,0.113
		c0.014,0.021,0.028,0.041,0.042,0.063c6.619-4.635,14.671-7.363,23.365-7.363C175.521,366.813,193.775,385.055,193.8,407.564z"/>
	<path fill="#4668FF" d="M193.897,152.945c0,22.531-18.266,40.797-40.797,40.797c-0.016,0-0.032-0.001-0.048-0.001
		s-0.032,0.001-0.048,0.001c-8.687,0-16.733-2.723-23.35-7.352c-0.014,0.021-0.028,0.042-0.042,0.063
		c30.597,19.666,63.276,32.922,96.681,39.777c-6.614-32.235-19.196-63.793-37.738-93.459
		C191.949,138.723,193.897,145.604,193.897,152.945z"/>
	<path fill="#4668FF" d="M186.512,129.532c-0.002,0.002-0.005,0.003-0.008,0.005c0.032,0.045,0.064,0.089,0.096,0.135
		C186.571,129.626,186.542,129.579,186.512,129.532z"/>
	<path fill="#4668FF" d="M129.655,186.391c0.01-0.015,0.021-0.03,0.031-0.045c-4.201-2.951-7.819-6.669-10.65-10.957
		c-0.022,0.015-0.045,0.029-0.067,0.045C121.81,179.725,125.441,183.443,129.655,186.391z"/>
	<path fill="#4668FF" d="M153.052,193.741c-8.697-0.011-16.75-2.749-23.366-7.396c-0.01,0.015-0.021,0.03-0.031,0.045
		c6.616,4.629,14.663,7.352,23.35,7.352C153.021,193.742,153.036,193.741,153.052,193.741z"/>
	<path fill="#4668FF" d="M175.514,118.908c0.262,0.165,0.525,0.323,0.788,0.486c-6.588-4.564-14.58-7.246-23.202-7.246
		c-0.016,0-0.032,0.001-0.048,0.001c8.3,0.01,16.016,2.503,22.455,6.77C175.509,118.916,175.512,118.912,175.514,118.908z"/>
	<path fill="#4668FF" d="M175.507,118.919c4.281,2.836,7.991,6.46,10.933,10.663c0.021-0.015,0.043-0.029,0.064-0.044
		c-2.775-3.954-6.231-7.392-10.202-10.143c-0.263-0.164-0.526-0.322-0.788-0.486C175.512,118.912,175.509,118.916,175.507,118.919z"
		/>
	<path fill="#4668FF" d="M186.601,129.672c0.661,1.03,1.308,2.065,1.955,3.099C187.949,131.708,187.297,130.673,186.601,129.672z"/>
	<path fill="#4668FF" d="M112.303,152.945c0,8.293,2.481,16.004,6.732,22.443c11.208-7.618,22.417-15.235,33.625-22.852
		c7.615-11.206,15.231-22.412,22.846-33.618c-6.438-4.267-14.154-6.76-22.455-6.77C130.543,112.176,112.303,130.43,112.303,152.945z
		"/>
	<path fill="#4668FF" d="M175.507,118.919c-7.615,11.206-15.23,22.412-22.846,33.618c11.26-7.651,22.52-15.303,33.779-22.955
		C183.498,125.379,179.788,121.755,175.507,118.919z"/>
	<path fill="#4668FF" d="M153.052,193.741c0.016,0,0.032,0.001,0.048,0.001c22.532,0,40.797-18.266,40.797-40.797
		c0-7.341-1.949-14.223-5.342-20.174c-0.646-1.034-1.293-2.069-1.955-3.099c-0.032-0.045-0.064-0.09-0.096-0.135
		c-0.021,0.015-0.043,0.029-0.064,0.044c4.634,6.619,7.361,14.67,7.361,23.364C193.801,175.461,175.562,193.715,153.052,193.741z"/>
	<path fill="#4668FF" d="M119.036,175.389c2.831,4.288,6.45,8.006,10.65,10.957c7.658-11.27,15.316-22.54,22.975-33.809
		C141.452,160.154,130.244,167.771,119.036,175.389z"/>
	<path fill="#4668FF" d="M193.801,152.945c0-8.693-2.728-16.745-7.361-23.364c-11.259,7.652-22.519,15.304-33.779,22.955
		c-7.659,11.27-15.317,22.54-22.975,33.809c6.616,4.646,14.669,7.385,23.366,7.396C175.562,193.715,193.801,175.461,193.801,152.945
		z"/>
	<path fill="#4668FF" d="M153.004,448.316c-22.517,0-40.771-18.242-40.796-40.752c0,0.016-0.001,0.029-0.001,0.045
		c0,22.531,18.266,40.797,40.797,40.797c8.313,0,16.04-2.492,22.488-6.76c-0.014-0.021-0.029-0.043-0.043-0.064
		C169.01,445.834,161.298,448.316,153.004,448.316z"/>
	<path fill="#4668FF" d="M186.449,430.961c-0.015-0.01-0.029-0.02-0.043-0.029c-2.95,4.201-6.668,7.82-10.957,10.65
		c0.014,0.021,0.029,0.043,0.043,0.064C179.783,438.805,183.502,435.174,186.449,430.961z"/>
	<path fill="#4668FF" d="M153.004,448.316c8.294,0,16.005-2.482,22.445-6.734c-7.618-11.209-15.236-22.418-22.854-33.627
		c-11.206-7.617-22.411-15.232-33.618-22.848c-4.267,6.439-6.76,14.156-6.769,22.457
		C112.233,430.074,130.488,448.316,153.004,448.316z"/>
	<path fill="#4668FF" d="M175.449,441.582c4.288-2.83,8.006-6.449,10.957-10.65c-11.271-7.658-22.541-15.318-33.811-22.977
		C160.213,419.164,167.831,430.373,175.449,441.582z"/>
	<path fill="#4668FF" d="M193.8,407.564c-0.01,8.697-2.748,16.75-7.395,23.367c0.014,0.01,0.029,0.02,0.043,0.029
		c4.628-6.617,7.352-14.664,7.352-23.352C193.801,407.594,193.8,407.58,193.8,407.564z"/>
	<path fill="#4668FF" d="M118.977,385.107c11.207,7.615,22.413,15.23,33.618,22.848c-7.652-11.262-15.303-22.521-22.956-33.779
		C125.437,377.117,121.813,380.828,118.977,385.107z"/>
	<path fill="#4668FF" d="M153.004,366.813c-8.694,0-16.746,2.729-23.365,7.363c7.653,11.258,15.304,22.518,22.956,33.779
		c11.27,7.658,22.539,15.318,33.811,22.977c4.646-6.617,7.385-14.67,7.395-23.367C193.775,385.055,175.521,366.813,153.004,366.813z
		"/>
</g>
</svg>
