<?xml version="1.0" encoding="utf-8"?>
<!-- Generator: Adobe Illustrator 16.0.0, SVG Export Plug-In . SVG Version: 6.00 Build 0)  -->
<!DOCTYPE svg PUBLIC "-//W3C//DTD SVG 1.1//EN" "http://www.w3.org/Graphics/SVG/1.1/DTD/svg11.dtd">
<svg version="1.1" id="line" xmlns="http://www.w3.org/2000/svg" xmlns:xlink="http://www.w3.org/1999/xlink" x="0px" y="0px"
	 width="512px" height="512px" viewBox="0 0 512 512" enable-background="new 0 0 512 512" xml:space="preserve">
<g>
	<path opacity="0.2" fill="#274FFF" d="M480,128H240c-13.6,0-24,10.4-24,24v328c0,13.6,10.4,24,24,24h240c13.6,0,24-10.4,24-24V152
		C504,138.4,493.6,128,480,128z M272,168h176c4.8,0,8,3.2,8,8s-3.2,8-8,8H272c-4.8,0-8-3.2-8-8S267.2,168,272,168z M272,216h176
		c4.8,0,8,3.2,8,8s-3.2,8-8,8H272c-4.8,0-8-3.2-8-8S267.2,216,272,216z M272,264h176c4.8,0,8,3.2,8,8s-3.2,8-8,8H272
		c-4.8,0-8-3.2-8-8S267.2,264,272,264z M272,312h176c4.8,0,8,3.2,8,8s-3.2,8-8,8H272c-4.8,0-8-3.2-8-8S267.2,312,272,312z M272,360
		h176c4.8,0,8,3.2,8,8s-3.2,8-8,8H272c-4.8,0-8-3.2-8-8S267.2,360,272,360z M460.8,422.4l-48,40c-4.8,4-12.8,0-12.8-6.4v-23.2
		l-35.2,28.8C360,466.4,352,462.4,352,456v-23.2l-35.2,28.8C312,466.4,304,462.4,304,456v-23.2l-35.2,28.8
		c-3.2,3.2-8.8,2.4-11.2-0.8c-3.2-3.2-2.399-8.8,0.801-11.2l48-40c5.6-4,13.6,0,13.6,6.4v23.2l35.2-28.8
		C360,405.6,368,409.6,368,416v23.2l35.2-28.8C408,405.6,416,409.6,416,416v23.2l35.2-28.8c3.2-3.2,8.8-2.4,11.2,0.8
		C464.8,414.4,464.8,419.2,460.8,422.4z"/>
	<g>
		<path fill="#474555" d="M336.8,301.6C351.2,291.2,360,275.2,360,256c0-31.2-24.8-56-56-56s-56,24.8-56,56
			c0,18.4,9.6,35.2,23.2,45.6c-28.8,9.601-52,31.2-63.2,58.4c-11.2-28-34.4-49.6-63.2-58.4C159.2,291.2,168,275.2,168,256
			c0-31.2-24.8-56-56-56s-56,24.8-56,56c0,18.4,9.6,35.2,23.2,45.6C37.6,315.2,8,354.4,8,400c0,4.8,3.2,8,8,8h384c4.8,0,8-3.2,8-8
			C408,354.4,378.4,315.2,336.8,301.6z M72,256c0-22.4,17.6-40,40-40s40,17.6,40,40c0,22.4-17.6,40-40,40S72,278.4,72,256z M24,392
			c4-44.8,41.6-80,88-80s83.2,35.2,88,80H24z M264,256c0-22.4,17.6-40,40-40s40,17.6,40,40c0,22.4-17.6,40-40,40S264,278.4,264,256z
			 M216,392c4-44.8,41.6-80,88-80s83.2,35.2,88,80H216z"/>
		<path fill="#474555" d="M384,8H32C18.4,8,8,18.4,8,32v88c0,13.6,10.4,24,24,24h44l29.6,36.8c3.2,4,9.6,4,12.8,0L148,144h120
			l29.6,36.8c1.601,1.6,4,3.2,6.4,3.2s4.8-0.8,6.4-3.2L340,144h44c13.6,0,24-10.4,24-24V32C408,18.4,397.6,8,384,8z M392,120
			c0,4.8-3.2,8-8,8h-48c-2.4,0-4.8,0.8-6.4,3.2l-25.6,32l-25.6-32c-1.601-2.4-4-3.2-6.4-3.2H144c-2.4,0-4.8,0.8-6.4,3.2l-25.6,32
			l-25.6-32c-1.6-2.4-4-3.2-6.4-3.2H32c-4.8,0-8-3.2-8-8V32c0-4.8,3.2-8,8-8h352c4.8,0,8,3.2,8,8V120z"/>
		<path fill="#474555" d="M360,48H56c-4.8,0-8,3.2-8,8s3.2,8,8,8h304c4.8,0,8-3.2,8-8S364.8,48,360,48z"/>
		<path fill="#474555" d="M360,88H56c-4.8,0-8,3.2-8,8s3.2,8,8,8h304c4.8,0,8-3.2,8-8S364.8,88,360,88z"/>
	</g>
</g>
</svg>
