<?xml version="1.0" encoding="utf-8"?>
<!-- Generator: Adobe Illustrator 16.0.0, SVG Export Plug-In . SVG Version: 6.00 Build 0)  -->
<!DOCTYPE svg PUBLIC "-//W3C//DTD SVG 1.1//EN" "http://www.w3.org/Graphics/SVG/1.1/DTD/svg11.dtd">
<svg version="1.1" id="line" xmlns="http://www.w3.org/2000/svg" xmlns:xlink="http://www.w3.org/1999/xlink" x="0px" y="0px"
	 width="512px" height="512px" viewBox="0 0 512 512" enable-background="new 0 0 512 512" xml:space="preserve">
<g opacity="0.2">
	<path fill="#274FFF" d="M360,312c0-23.2-1.359-44.641-3.279-64H283.6c-1.92,19.359-3.039,40.8-3.279,64H360z"/>
	<path fill="#274FFF" d="M267.52,248H150.88c-8.666,20.279-13.572,41.965-14.48,64H264C264.48,290.24,265.6,268.561,267.52,248z"/>
	<path fill="#274FFF" d="M372.88,392h116.64c8.666-20.279,13.573-41.965,14.48-64H376C376,349.76,374.8,371.44,372.88,392
		L372.88,392z"/>
	<path fill="#274FFF" d="M285.439,408c6.32,50.64,17.521,84.64,27.681,96c4.717,0.24,9.442,0.24,14.159,0
		c10.16-11.2,21.361-45.2,27.681-96H285.439z"/>
	<path fill="#274FFF" d="M280,328c0,23.2,1.359,44.64,3.279,64H356.8c1.921-19.36,3.04-40.8,3.28-64H280z"/>
	<path fill="#274FFF" d="M354.96,232c-6.319-50.64-17.521-84.64-27.681-96c-4.717-0.24-9.442-0.24-14.159,0
		c-10.16,11.2-21.36,45.2-27.681,96H354.96z"/>
	<path fill="#274FFF" d="M269.279,408H158.64c27.715,50.73,77.616,85.528,134.799,94C282.08,481.2,274,447.2,269.279,408z"/>
	<path fill="#274FFF" d="M371.12,408c-4.72,39.2-12.8,73.2-24,94c57.147-8.459,107.005-43.268,134.64-94H371.12z"/>
	<path fill="#274FFF" d="M269.279,232c4.721-39.2,12.801-73.2,24-94c-57.124,8.519-106.957,43.311-134.639,94H269.279z"/>
	<path fill="#274FFF" d="M374.8,273.439c0.8,12.721,1.2,25.601,1.36,38.561H504c-0.907-22.035-5.814-43.721-14.48-64h-90.8
		c-13.255,0.021-23.983,10.781-23.963,24.037C374.758,272.505,374.771,272.973,374.8,273.439L374.8,273.439z"/>
	<path fill="#274FFF" d="M256.4,328h-120c0.908,22.035,5.814,43.721,14.48,64h116.64c-1.68-18.08-2.799-37.04-3.119-56
		C264.4,331.582,260.818,328,256.4,328z"/>
	<path fill="#274FFF" d="M371.12,232h110.64c-27.667-50.773-77.593-85.588-134.8-94C358.32,158.8,366.4,192.8,371.12,232L371.12,232
		z"/>
</g>
<path fill="#474555" d="M350,93.36c21.051-16.112,25.055-46.239,8.943-67.291c-16.112-21.051-46.24-25.055-67.291-8.943
	C287.018,20.673,283.069,25.036,280,30c-46.159-18.8-97.841-18.8-144,0C121.859,7.577,92.219,0.862,69.795,15.002
	C47.372,29.143,40.657,58.784,54.798,81.208c2.932,4.648,6.639,8.759,10.962,12.152C31.07,106.054,8,139.061,8,176
	c0,4.418,3.582,8,8,8h1.68c-1.032,7.96-1.593,15.974-1.68,24c0.166,72.779,41.368,139.242,106.48,171.76
	c-1.641,6.622-2.474,13.418-2.48,20.24c0,4.418,3.582,8,8,8h160c4.418,0,8-3.582,8-8c-0.006-6.822-0.84-13.618-2.48-20.24
	C358.632,347.242,399.834,280.779,400,208c-0.087-8.026-0.648-16.04-1.68-24H400c4.418,0,8-3.582,8-8
	C407.963,138.999,384.784,105.974,350,93.36L350,93.36z M320,24c17.674,0,32,14.327,32,32s-14.326,32-32,32s-32-14.327-32-32
	S302.326,24,320,24z M64,56c0-17.673,14.327-32,32-32s32,14.327,32,32s-14.327,32-32,32S64,73.673,64,56z M96,104
	c36.656,0.018,67.447,27.571,71.52,64H24.48C28.553,131.571,59.344,104.018,96,104z M136.48,392
	c4.584-39.499,40.321-67.804,79.82-63.22c33.19,3.852,59.368,30.03,63.22,63.22H136.48z M176,280c0-17.674,14.327-32,32-32
	s32,14.326,32,32s-14.327,32-32,32S176,297.674,176,280z M288,364.4c-9.703-21.883-27.901-38.867-50.4-47.04
	c20.694-16.569,24.039-46.776,7.47-67.47c-16.568-20.694-46.776-24.039-67.47-7.47c-20.694,16.568-24.039,46.775-7.47,67.47
	c2.208,2.758,4.713,5.263,7.47,7.471c-22.197,8.355-40.081,25.316-49.6,47.04C60.983,330.876,23.023,258.149,33.84,184H176
	c4.418,0,8-3.582,8-8c-0.037-37.001-23.216-70.026-58-82.64c11.348-9.085,17.967-22.823,18-37.36c-0.03-3.83-0.514-7.644-1.44-11.36
	c42.025-16.718,88.855-16.718,130.879,0C272.514,48.356,272.03,52.17,272,56c0.033,14.537,6.652,28.275,18,37.36
	c-34.784,12.614-57.963,45.639-58,82.64c0,4.418,3.582,8,8,8h142.16c10.885,74.055-26.898,146.753-93.76,180.4H288z M248.48,168
	c4.584-39.5,40.321-67.804,79.82-63.22c33.19,3.852,59.368,30.031,63.22,63.22H248.48z"/>
</svg>
