<?xml version="1.0" encoding="utf-8"?>
<!-- Generator: Adobe Illustrator 16.0.0, SVG Export Plug-In . SVG Version: 6.00 Build 0)  -->
<!DOCTYPE svg PUBLIC "-//W3C//DTD SVG 1.1//EN" "http://www.w3.org/Graphics/SVG/1.1/DTD/svg11.dtd">
<svg version="1.1" id="line" xmlns="http://www.w3.org/2000/svg" xmlns:xlink="http://www.w3.org/1999/xlink" x="0px" y="0px"
	 width="512px" height="512px" viewBox="0 0 512 512" enable-background="new 0 0 512 512" xml:space="preserve">
<path opacity="0.2" fill="#274FFF" d="M280,168h144c13.255,0,24-10.745,24-24s-10.745-24-24-24h-41.008
	c-4.4-17.116-21.844-27.424-38.961-23.023c-11.297,2.904-20.119,11.726-23.023,23.023H280c-13.255,0-24,10.745-24,24
	S266.745,168,280,168z"/>
<path opacity="0.2" fill="#274FFF" d="M480,136h-16.8c4.418,21.645-9.547,42.773-31.192,47.192C429.373,183.73,426.689,184,424,184
	H280c-22.092,0.004-40.004-17.9-40.008-39.992c0-2.69,0.271-5.373,0.808-8.008H224c-13.255,0-24,10.745-24,24v320
	c0,13.255,10.745,24,24,24h256c13.255,0,24-10.745,24-24V160C504,146.745,493.255,136,480,136z M384,424H248c-4.418,0-8-3.582-8-8
	s3.582-8,8-8h136c4.418,0,8,3.582,8,8S388.418,424,384,424z M384,344H248c-4.418,0-8-3.582-8-8s3.582-8,8-8h136c4.418,0,8,3.582,8,8
	S388.418,344,384,344z M384,264H248c-4.418,0-8-3.582-8-8c0-4.418,3.582-8,8-8h136c4.418,0,8,3.582,8,8
	C392,260.418,388.418,264,384,264z M456,424c0,4.418-3.582,8-8,8h-16c-4.418,0-8-3.582-8-8v-16c0-4.418,3.582-8,8-8h16
	c4.418,0,8,3.582,8,8V424z M456,344c0,4.418-3.582,8-8,8h-16c-4.418,0-8-3.582-8-8v-16c0-4.418,3.582-8,8-8h16c4.418,0,8,3.582,8,8
	V344z M456,264c0,4.418-3.582,8-8,8h-16c-4.418,0-8-3.582-8-8v-16c0-4.418,3.582-8,8-8h16c4.418,0,8,3.582,8,8V264z"/>
<path fill="#474555" d="M384,168h-24v-8c0-13.255-10.745-24-24-24h-69.752l0.544-2.176c3.216-12.859-4.601-25.89-17.458-29.107
	c-1.907-0.477-3.864-0.718-5.83-0.717H216V88h24c13.255,0,24-10.745,24-24V32c0-13.255-10.745-24-24-24h-64
	c-13.255,0-24,10.745-24,24v32c0,13.255,10.745,24,24,24h24v16h-19.504c-11.014-0.002-20.615,7.492-23.288,18.176L153.752,136H80
	c-13.255,0-24,10.745-24,24v8H32c-13.255,0-24,10.745-24,24v32c0,13.255,10.745,24,24,24h24v8c0,13.255,10.745,24,24,24h69.752
	l-0.544,2.176c-3.216,12.859,4.6,25.891,17.458,29.106c1.907,0.478,3.864,0.718,5.83,0.718H200v16h-24c-13.255,0-24,10.745-24,24v32
	c0,13.255,10.745,24,24,24h64c13.255,0,24-10.745,24-24v-32c0-13.255-10.745-24-24-24h-24v-16h19.504
	c11.014,0.003,20.615-7.492,23.288-18.176L262.248,280H336c13.255,0,24-10.745,24-24v-8h24c13.255,0,24-10.745,24-24v-32
	C408,178.745,397.255,168,384,168z M168,64V32c0-4.418,3.582-8,8-8h64c4.418,0,8,3.582,8,8v32c0,4.418-3.582,8-8,8h-64
	C171.582,72,168,68.418,168,64z M248,352v32c0,4.418-3.582,8-8,8h-64c-4.418,0-8-3.582-8-8v-32c0-4.418,3.582-8,8-8h64
	C244.418,344,248,347.582,248,352z M180.496,120h63.008c4.418-0.004,8.003,3.574,8.008,7.992c0.001,0.658-0.08,1.313-0.24,1.952
	l-8,32c-0.889,3.566-4.093,6.067-7.768,6.064h-63.008c-4.418,0.004-8.003-3.574-8.008-7.992c0-0.658,0.08-1.313,0.24-1.952l8-32
	C173.617,122.499,176.821,119.998,180.496,120z M24,224v-32c0-4.418,3.582-8,8-8h64c4.418,0,8,3.582,8,8v32c0,4.418-3.582,8-8,8H32
	C27.582,232,24,228.418,24,224z M235.504,296h-63.008c-4.418,0.004-8.003-3.574-8.008-7.992c0-0.658,0.08-1.313,0.24-1.951l8-32
	c0.893-3.563,4.096-6.06,7.768-6.056h63.008c4.418-0.004,8.003,3.574,8.008,7.992c0.001,0.658-0.08,1.313-0.24,1.951l-8,32
	C242.379,293.506,239.176,296.004,235.504,296z M344,256c0,4.418-3.582,8-8,8h-69.752l0.544-2.176
	c3.216-12.859-4.601-25.89-17.458-29.107c-1.907-0.477-3.864-0.718-5.83-0.717h-63.008c-11.014-0.002-20.615,7.492-23.288,18.176
	L153.752,264H80c-4.418,0-8-3.582-8-8v-8h24c13.255,0,24-10.745,24-24v-32c0-13.255-10.745-24-24-24H72v-8c0-4.418,3.582-8,8-8
	h69.752l-0.544,2.176c-3.216,12.859,4.6,25.89,17.458,29.107c1.907,0.477,3.864,0.718,5.83,0.717h63.008
	c11.014,0.002,20.615-7.492,23.288-18.176L262.248,152H336c4.418,0,8,3.582,8,8v8h-24c-13.255,0-24,10.745-24,24v32
	c0,13.255,10.745,24,24,24h24V256z M392,224c0,4.418-3.582,8-8,8h-64c-4.418,0-8-3.582-8-8v-32c0-4.418,3.582-8,8-8h64
	c4.418,0,8,3.582,8,8V224z"/>
</svg>
