<?xml version="1.0" encoding="utf-8"?>
<!-- Generator: Adobe Illustrator 16.0.0, SVG Export Plug-In . SVG Version: 6.00 Build 0)  -->
<!DOCTYPE svg PUBLIC "-//W3C//DTD SVG 1.1//EN" "http://www.w3.org/Graphics/SVG/1.1/DTD/svg11.dtd">
<svg version="1.1" id="line" xmlns="http://www.w3.org/2000/svg" xmlns:xlink="http://www.w3.org/1999/xlink" x="0px" y="0px"
	 width="512px" height="512px" viewBox="0 0 512 512" enable-background="new 0 0 512 512" xml:space="preserve">
<path opacity="0.2" fill="#274FFF" d="M209.68,218.32c-3.111-3.137-8.177-3.158-11.314-0.046c-0.015,0.016-0.031,0.031-0.046,0.046
	l-88,88c-3.137,3.111-3.158,8.176-0.046,11.313c1.513,1.525,3.577,2.379,5.727,2.366h32v160c0,13.255,10.745,24,24,24h64
	c13.255,0,24-10.745,24-24V320h32c4.418,0.025,8.021-3.535,8.047-7.953c0.012-2.149-0.841-4.213-2.367-5.727L209.68,218.32z"/>
<path opacity="0.2" fill="#274FFF" d="M497.68,218.32l-112-112c-3.111-3.137-8.176-3.158-11.313-0.046
	c-0.015,0.016-0.03,0.031-0.046,0.046l-112,112c-3.137,3.111-3.158,8.177-0.047,11.314c1.514,1.526,3.577,2.379,5.727,2.366h48v248
	c0,13.255,10.745,24,24,24h80c13.255,0,24-10.745,24-24V232h48c4.418,0.026,8.021-3.535,8.047-7.953
	C500.059,221.897,499.206,219.833,497.68,218.32z"/>
<path fill="#474555" d="M240,189.28c47.123-24.3,65.623-82.2,41.322-129.323c-24.3-47.123-82.2-65.624-129.322-41.323
	c-47.123,24.3-65.624,82.2-41.323,129.323c9.145,17.734,23.589,32.178,41.323,41.323C69.862,209.686,12.146,283.365,12,368
	c0,4.418,3.582,8,8,8h352c4.418,0,8-3.582,8-8C379.854,283.365,322.138,209.686,240,189.28z M116,104c0-44.183,35.817-80,80-80
	s80,35.817,80,80s-35.817,80-80,80S116,148.183,116,104z M196,200c18.49,0.057,36.843,3.165,54.32,9.2L196,311.04L141.68,209.2
	C159.157,203.165,177.51,200.057,196,200z M28,360c3.102-62.996,41.226-118.947,98.72-144.88l62.24,116.64
	c2.099,3.889,6.952,5.339,10.84,3.24c1.373-0.741,2.499-1.867,3.24-3.24l62.239-116.64c57.432,25.979,95.488,81.921,98.561,144.88
	H28z"/>
</svg>
