<?xml version="1.0" encoding="utf-8"?>
<!-- Generator: Adobe Illustrator 16.0.0, SVG Export Plug-In . SVG Version: 6.00 Build 0)  -->
<!DOCTYPE svg PUBLIC "-//W3C//DTD SVG 1.1//EN" "http://www.w3.org/Graphics/SVG/1.1/DTD/svg11.dtd">
<svg version="1.1" id="line" xmlns="http://www.w3.org/2000/svg" xmlns:xlink="http://www.w3.org/1999/xlink" x="0px" y="0px"
	 width="512px" height="512px" viewBox="0 0 512 512" enable-background="new 0 0 512 512" xml:space="preserve">
<path opacity="0.2" fill="#274FFF" d="M304,187.608c-64.233-0.066-116.358,51.951-116.424,116.184
	c-0.016,15.713,3.152,31.266,9.313,45.72l152.624-152.624C335.115,190.782,319.639,187.627,304,187.608L304,187.608z"/>
<path opacity="0.2" fill="#274FFF" d="M386.344,221.656c-6.594-6.543-13.951-12.27-21.912-17.056L204.6,364.432
	c9.55,16.025,22.943,29.418,38.968,38.969L403.4,243.568C398.611,235.608,392.885,228.251,386.344,221.656L386.344,221.656z"/>
<path opacity="0.2" fill="#274FFF" d="M478.664,304l24.944-77.064c1.212-3.749-0.485-7.821-4-9.6l-72.137-36.848l-36.848-72.136
	c-1.778-3.515-5.852-5.212-9.601-4L304,129.336l-77.064-24.944c-3.749-1.212-7.821,0.485-9.6,4l-36.848,72.136l-72.136,36.848
	c-3.515,1.779-5.212,5.852-4,9.6L129.336,304l-24.944,77.064c-1.212,3.748,0.485,7.821,4,9.6l72.136,36.848l36.848,72.137
	c1.779,3.515,5.852,5.212,9.6,4L304,478.664l77.064,24.944c3.748,1.212,7.82-0.485,9.6-4l36.848-72.137l72.137-36.848
	c3.515-1.778,5.212-5.852,4-9.6L478.664,304z M397.656,397.656c-51.725,51.724-135.586,51.723-187.31-0.003
	c-51.724-51.725-51.723-135.586,0.002-187.31c51.724-51.723,135.583-51.723,187.308,0
	C449.298,262.104,449.298,345.896,397.656,397.656z"/>
<path opacity="0.2" fill="#274FFF" d="M258.488,411.112c59.109,25.182,127.441-2.323,152.624-61.434
	c12.409-29.13,12.409-62.061,0-91.19L258.488,411.112z"/>
<g>
	<path fill="#474555" d="M328,160H184c-4.418,0-8-3.582-8-8s3.582-8,8-8h144c4.418,0,8,3.582,8,8S332.418,160,328,160z"/>
	<path fill="#474555" d="M328,200H184c-4.418,0-8-3.582-8-8s3.582-8,8-8h144c4.418,0,8,3.582,8,8S332.418,200,328,200z"/>
	<path fill="#474555" d="M328,240H184c-4.418,0-8-3.582-8-8s3.582-8,8-8h144c4.418,0,8,3.582,8,8S332.418,240,328,240z"/>
	<path fill="#474555" d="M240,264h88c4.418,0,8,3.582,8,8s-3.582,8-8,8h-88c-4.418,0-8-3.582-8-8S235.582,264,240,264z"/>
	<path fill="#474555" d="M239.344,99.824l-24.52-40c-2.621-3.769-7.801-4.699-11.57-2.079c-0.811,0.564-1.515,1.268-2.079,2.079
		l-24.52,40c-2.306,3.769-1.121,8.693,2.648,11c1.257,0.769,2.702,1.176,4.176,1.176h49.04c4.418,0,8-3.581,8-8
		C240.521,102.526,240.113,101.081,239.344,99.824z M218.232,96h-20.464L208,79.304L218.232,96z"/>
	<path fill="#474555" d="M75.752,355.824c-2.306,3.769-1.121,8.693,2.647,10.999c1.257,0.77,2.703,1.177,4.177,1.177h58.848
		c4.418,0,8-3.581,8-8c0-1.474-0.407-2.919-1.176-4.176l-29.424-48c-2.621-3.77-7.801-4.699-11.57-2.078
		c-0.811,0.563-1.515,1.268-2.079,2.078L75.752,355.824z M96.864,352L112,327.313L127.136,352H96.864z"/>
	<path fill="#474555" d="M16,288v96c0,13.255,10.745,24,24,24h144c13.255,0,24-10.745,24-24v-40h152c13.255,0,24-10.745,24-24
		V86.632c0.021-6.371-2.512-12.485-7.032-16.976l-54.624-54.624c-4.49-4.52-10.604-7.053-16.976-7.032H152
		c-13.255,0-24,10.745-24,24l0,0v232H40C26.745,264,16,274.745,16,288L16,288z M356.688,72H328c-4.418,0-8-3.582-8-8V35.312
		L356.688,72z M208,328v-40c0-13.255-10.745-24-24-24h-40V32c0-4.418,3.582-8,8-8h152v40c0,13.255,10.745,24,24,24h40v232
		c0,4.418-3.582,8-8,8H208z M32,288c0-4.418,3.582-8,8-8h144c4.418,0,8,3.582,8,8v96c0,4.418-3.582,8-8,8H40c-4.418,0-8-3.582-8-8
		V288z"/>
	<path fill="#474555" d="M8,64v64c0,4.418,3.582,8,8,8s8-3.582,8-8V64c0-4.418,3.582-8,8-8h8v136
		c-0.001,1.241,0.287,2.465,0.84,3.576l24,48c1.971,3.954,6.774,5.562,10.729,3.591c1.556-0.775,2.816-2.036,3.592-3.591l24-48
		c0.553-1.111,0.841-2.335,0.84-3.576V32c0-13.255-10.745-24-24-24H64C50.745,8,40,18.745,40,32v8h-8C18.745,40,8,50.745,8,64z
		 M56,56h32v128H56V56z M88,40H56v-8c0-4.418,3.582-8,8-8h16c4.418,0,8,3.582,8,8V40z M60.944,200h22.112L72,222.112L60.944,200z"/>
</g>
</svg>
