<?xml version="1.0" encoding="utf-8"?>
<!-- Generator: Adobe Illustrator 16.0.0, SVG Export Plug-In . SVG Version: 6.00 Build 0)  -->
<!DOCTYPE svg PUBLIC "-//W3C//DTD SVG 1.1//EN" "http://www.w3.org/Graphics/SVG/1.1/DTD/svg11.dtd">
<svg version="1.1" id="line" xmlns="http://www.w3.org/2000/svg" xmlns:xlink="http://www.w3.org/1999/xlink" x="0px" y="0px"
	 width="512px" height="512px" viewBox="0 0 512 512" enable-background="new 0 0 512 512" xml:space="preserve">
<path opacity="0.2" fill="#274FFF" d="M490.32,261.68c3.111,3.137,8.176,3.158,11.313,0.047c1.526-1.514,2.379-3.577,2.366-5.727
	V128c0-13.255-10.745-24-24-24H352c-4.418-0.026-8.021,3.535-8.047,7.953c-0.012,2.149,0.841,4.213,2.367,5.727l32.4,32.4L304,224.8
	l-74.72-74.72l32.4-32.4c3.137-3.111,3.158-8.177,0.047-11.314c-1.514-1.526-3.577-2.379-5.727-2.366H128c-13.255,0-24,10.745-24,24
	v128c-0.026,4.418,3.535,8.021,7.953,8.047c2.149,0.012,4.213-0.841,5.727-2.367l32.4-32.4L224.8,304l-74.72,74.72l-32.4-32.399
	c-3.111-3.138-8.177-3.158-11.314-0.047c-1.526,1.514-2.379,3.577-2.366,5.727v128c0,13.255,10.745,24,24,24h128
	c4.418,0.025,8.021-3.535,8.047-7.953c0.012-2.149-0.841-4.213-2.367-5.727l-32.4-32L304,383.2l74.721,74.72l-32.4,32
	c-3.367,2.861-3.776,7.91-0.914,11.276c1.633,1.922,4.076,2.961,6.594,2.804h128c13.255,0,24-10.745,24-24V352
	c0.025-4.418-3.535-8.021-7.953-8.047c-2.149-0.012-4.213,0.841-5.727,2.367l-32,32.399L383.2,304l74.72-74.72L490.32,261.68z"/>
<path fill="#474555" d="M384,8H32C18.745,8,8,18.745,8,32v352c0,13.255,10.745,24,24,24h176c4.418,0,8-3.582,8-8v-51.44
	c5.034,2.253,10.485,3.425,16,3.44c22.091,0,40-17.908,40-40s-17.909-40-40-40c-5.515,0.016-10.966,1.188-16,3.439V216h75.04
	c4.415-0.179,7.849-3.903,7.669-8.317c-0.088-2.185-1.067-4.238-2.709-5.683c-5.119-4.579-8.031-11.132-8-18
	c0-13.255,10.745-24,24-24s24,10.745,24,24c0.031,6.868-2.881,13.421-8,18c-3.317,2.918-3.641,7.973-0.723,11.291
	c1.444,1.642,3.498,2.621,5.683,2.709H400c4.418,0,8-3.582,8-8V32C408,18.745,397.255,8,384,8z M24,32c0-4.418,3.582-8,8-8h168
	v43.44c-5.034-2.252-10.485-3.425-16-3.44c-22.091,0-40,17.909-40,40s17.909,40,40,40c5.515-0.015,10.966-1.188,16-3.44V200h-75.04
	c-4.415,0.179-7.848,3.903-7.669,8.317c0.089,2.185,1.068,4.238,2.709,5.683c5.12,4.579,8.032,11.132,8,18c0,13.255-10.745,24-24,24
	s-24-10.745-24-24l0,0c-0.032-6.868,2.88-13.421,8-18c3.317-2.918,3.641-7.973,0.723-11.291c-1.444-1.642-3.498-2.621-5.683-2.709
	H24V32z M232,288c13.255,0,24,10.745,24,24s-10.745,24-24,24l0,0c-6.868,0.032-13.421-2.881-18-8
	c-2.922-3.313-7.978-3.631-11.292-0.709c-1.719,1.517-2.705,3.697-2.708,5.989V392H32c-4.418,0-8-3.582-8-8V216h43.44
	c-2.253,5.034-3.425,10.485-3.44,16c0,22.091,17.909,40,40,40s40-17.909,40-40c-0.015-5.515-1.187-10.966-3.44-16H200v75.04
	c0.006,4.419,3.593,7.995,8.012,7.988c2.292-0.003,4.472-0.989,5.988-2.708C218.52,291.082,225.081,288.049,232,288z M392,200
	h-43.439c2.252-5.034,3.424-10.485,3.439-16c0-22.091-17.908-40-40-40s-40,17.909-40,40c0.016,5.515,1.188,10.966,3.439,16H216
	v-75.04c-0.179-4.415-3.903-7.848-8.317-7.669c-2.185,0.089-4.238,1.068-5.683,2.709c-4.579,5.12-11.132,8.032-18,8
	c-13.255,0-24-10.745-24-24s10.745-24,24-24c6.868-0.032,13.421,2.88,18,8c2.918,3.317,7.973,3.641,11.291,0.723
	c1.642-1.444,2.621-3.498,2.709-5.683V24h168c4.418,0,8,3.582,8,8V200z"/>
</svg>
