<?xml version="1.0" encoding="utf-8"?>
<!-- Generator: Adobe Illustrator 16.0.0, SVG Export Plug-In . SVG Version: 6.00 Build 0)  -->
<!DOCTYPE svg PUBLIC "-//W3C//DTD SVG 1.1//EN" "http://www.w3.org/Graphics/SVG/1.1/DTD/svg11.dtd">
<svg version="1.1" id="Слой_1" xmlns="http://www.w3.org/2000/svg" xmlns:xlink="http://www.w3.org/1999/xlink" x="0px" y="0px"
	 width="2721.06px" height="1938.193px" viewBox="0 0 2721.06 1938.193" enable-background="new 0 0 2721.06 1938.193"
	 xml:space="preserve">
<g>
	<path fill="#EBF3FA" d="M102.804,1614.704c0.129,0.096,2521.506-0.313,2521.506-0.313c83.01-177.061,82.865-263.566,92.314-365.055
		c52.154-560.951-370.348-647.191-494.121-670.582c-378.987-71.622-206.498-425.991-1194.08-359.505
		c-90.513,6.093-303.929,55.29-377.479,87.162c-51.587,22.337-245.945,122.286-302.97,291.359
		c-18.011,53.362-22.332,113.606-4.173,180.473c64.272,236.612-103.29,223.012-225.732,335.775
		C-45.353,1264.503-28.27,1510.612,102.804,1614.704z"/>
	<g>
		<g>
			<path fill="#B0D4FF" d="M1604.727,1614.548h0.346c2.036,0,3.674-1.676,3.627-3.711l-5.5-238.406l-16.203-1.891l13.817,240.313
				C1600.933,1612.927,1602.65,1614.548,1604.727,1614.548z"/>
		</g>
		<g>
			<path fill="#95C0F4" d="M1699.146,1614.548h0.346c2.036,0,3.674-1.676,3.627-3.711l-5.501-238.406l-16.202-1.891l13.816,240.313
				C1695.351,1612.927,1697.068,1614.548,1699.146,1614.548z"/>
		</g>
		<g>
			<path fill="#B0D4FF" d="M1438.603,1614.548h-0.346c-2.036,0-3.674-1.676-3.627-3.711l5.501-238.406l16.202-1.891l-13.816,240.313
				C1442.398,1612.927,1440.681,1614.548,1438.603,1614.548z"/>
		</g>
		<path fill="#B0D4FF" d="M1709.882,1357.646v-163.367c0-28.746-23.304-52.049-52.049-52.049h-117.702
			c-28.745,0-52.049,23.303-52.049,52.049v169.609L1709.882,1357.646z"/>
		<path fill="#95C0F4" d="M1466.995,1383.437h227.259c8.632,0,15.629-6.998,15.629-15.629v-10.162h-242.888V1383.437z"/>
		<path fill="#CAE5FF" d="M1439.761,1383.437h171.931c6.382,0,11.556-5.174,11.556-11.557v-2.68c0-6.381-5.174-11.555-11.556-11.555
			h-171.931c-6.383,0-11.557,5.174-11.557,11.555v2.68C1428.205,1378.263,1433.378,1383.437,1439.761,1383.437z"/>
	</g>
	<g>
		<rect x="1157.404" y="497.813" fill="#95C0F4" width="678.531" height="585.735"/>
		<g>
			<rect x="1170.321" y="507.571" fill="#DFEDFB" width="652.42" height="564.297"/>
			<g>
				<polygon fill="#FFFFFF" points="1398.348,753.092 1255.385,753.092 1255.385,574.572 1279.627,552.719 1398.348,552.719 				"/>
				<polygon fill="#B0D4FF" points="1255.385,574.572 1278.848,574.572 1279.627,552.719 				"/>
				<rect x="1303.979" y="570.095" fill="#B0D4FF" width="45.775" height="2.18"/>
				<rect x="1293.204" y="576.635" fill="#B0D4FF" width="67.326" height="2.18"/>
				<rect x="1272.309" y="618.634" fill="#B0D4FF" width="111.791" height="2.802"/>
				<rect x="1272.309" y="627.146" fill="#B0D4FF" width="111.791" height="2.803"/>
				<rect x="1272.309" y="635.657" fill="#B0D4FF" width="111.791" height="2.802"/>
				<rect x="1272.309" y="644.168" fill="#B0D4FF" width="111.791" height="2.803"/>
				<rect x="1272.309" y="735.252" fill="#B0D4FF" width="111.791" height="2.803"/>
			</g>
			<g>
				<polygon fill="#FFFFFF" points="1563.425,1000.771 1420.462,1000.771 1420.462,822.25 1444.705,800.398 1563.425,800.398 				
					"/>
				<polygon fill="#B0D4FF" points="1420.462,822.25 1443.925,822.25 1444.705,800.398 				"/>
				<rect x="1469.056" y="817.774" fill="#B0D4FF" width="45.775" height="2.18"/>
				<rect x="1458.281" y="824.313" fill="#B0D4FF" width="67.326" height="2.18"/>
				<rect x="1437.386" y="866.313" fill="#B0D4FF" width="111.791" height="2.803"/>
				<rect x="1437.386" y="874.824" fill="#B0D4FF" width="111.791" height="2.803"/>
				<rect x="1437.386" y="883.336" fill="#B0D4FF" width="111.791" height="2.803"/>
				<rect x="1437.386" y="891.848" fill="#B0D4FF" width="111.791" height="2.802"/>
				<rect x="1437.386" y="918.038" fill="#B0D4FF" width="111.791" height="2.801"/>
				<rect x="1437.386" y="926.547" fill="#B0D4FF" width="111.791" height="2.803"/>
				<rect x="1437.386" y="936.418" fill="#B0D4FF" width="111.791" height="2.803"/>
			</g>
			<g>
				<rect x="1565.159" y="552.719" fill="#B0D4FF" width="78.943" height="69.596"/>
				<circle fill="#FFA412" cx="1604.63" cy="561.004" r="3.456"/>
			</g>
			<g>
				
					<rect x="1565.159" y="646.848" transform="matrix(-0.9976 0.0696 -0.0696 -0.9976 3252.835 1249.8912)" fill="#FFFFFF" width="78.943" height="69.597"/>
				<circle fill="#B0D4FF" cx="1603.085" cy="659.503" r="3.456"/>
			</g>
			<g>
				
					<rect x="1302.83" y="903.249" transform="matrix(-0.9976 0.0696 -0.0696 -0.9976 2746.6692 1780.3391)" fill="#FFFFFF" width="78.943" height="69.596"/>
				<circle fill="#B0D4FF" cx="1340.755" cy="915.904" r="3.457"/>
			</g>
			<g>
				
					<rect x="1201.585" y="950.935" transform="matrix(-0.9999 0.0103 -0.0103 -0.9999 2492.1694 1958.6724)" fill="#FFFFFF" width="78.943" height="69.597"/>
				<circle fill="#B0D4FF" cx="1240.829" cy="963.537" r="3.456"/>
			</g>
			<g>
				
					<rect x="1676.653" y="692.623" transform="matrix(-0.9844 -0.1759 0.1759 -0.9844 3277.5073 1745.4121)" fill="#EEF6FF" width="78.942" height="69.597"/>
				<circle fill="#78ACEA" cx="1720.587" cy="702.448" r="3.005"/>
			</g>
			<g>
				
					<rect x="1443.631" y="646.848" transform="matrix(-0.9942 0.1076 -0.1076 -0.9942 3030.9385 1199.7567)" fill="#EEF6FF" width="78.944" height="69.596"/>
				<circle fill="#78ACEA" cx="1480.373" cy="656.424" r="3.006"/>
			</g>
			<g>
				
					<rect x="1242.872" y="814.785" transform="matrix(-0.978 0.2085 -0.2085 -0.978 2713.6665 1413.0645)" fill="#BAE8E3" width="78.943" height="69.596"/>
				<circle fill="#FFA412" cx="1277.048" cy="824.745" r="3.005"/>
			</g>
			<g>
				<g>
					<polygon fill="#FFFFFF" points="1520.67,622.315 1445.535,622.315 1445.535,571.832 1466.336,552.719 1520.67,552.719 					"/>
					<polygon fill="#B0D4FF" points="1445.133,571.832 1465.656,571.832 1466.336,552.719 					"/>
				</g>
				<circle fill="#B0D4FF" cx="1485.849" cy="559.157" r="2.47"/>
			</g>
			<g>
				<g>
					<polygon fill="#FFFFFF" points="1740.205,1035.568 1665.068,1035.568 1665.068,985.086 1685.871,965.973 1740.205,965.973 
											"/>
					<polygon fill="#B0D4FF" points="1664.667,985.086 1685.19,985.086 1685.871,965.973 					"/>
				</g>
				<circle fill="#B0D4FF" cx="1705.383" cy="972.41" r="2.47"/>
			</g>
			<g>
				<g>
					<polygon fill="#FFFFFF" points="1774.48,935.383 1699.343,935.383 1699.343,884.899 1720.146,865.786 1774.48,865.786 					"/>
					<polygon fill="#B0D4FF" points="1698.943,884.899 1719.465,884.899 1720.146,865.786 					"/>
				</g>
				<circle fill="#B0D4FF" cx="1739.658" cy="872.225" r="2.47"/>
			</g>
			<g>
				<g>
					<polygon fill="#BAE8E3" points="1675.325,935.383 1600.188,935.383 1600.188,884.899 1620.991,865.786 1675.325,865.786 					
						"/>
					<polygon fill="#A1D6CE" points="1599.788,884.899 1620.31,884.899 1620.991,865.786 					"/>
				</g>
				<circle fill="#F99746" cx="1640.503" cy="872.225" r="2.47"/>
			</g>
			<g>
				<g>
					<polygon fill="#BAE8E3" points="1795.683,604.894 1720.546,604.894 1720.546,554.41 1741.349,535.297 1795.683,535.297 					
						"/>
					<polygon fill="#A1D6CE" points="1720.146,554.41 1740.667,554.41 1741.349,535.297 					"/>
				</g>
				<circle fill="#F99746" cx="1760.861" cy="541.735" r="2.47"/>
			</g>
		</g>
	</g>
	<g>
		<path fill="#C0D8FB" d="M1052.669,483.645H909.748c-6.561,0-11.929-5.368-11.929-11.929V333.771
			c0-6.561,5.368-11.929,11.929-11.929h142.921c6.562,0,11.929,5.368,11.929,11.929v137.944
			C1064.599,478.276,1059.231,483.645,1052.669,483.645z"/>
		<path fill="#DFEBFD" d="M1046.478,476.635H915.939c-5.993,0-10.896-4.903-10.896-10.896V339.747
			c0-5.993,4.903-10.896,10.896-10.896h130.539c5.993,0,10.896,4.903,10.896,10.896v125.992
			C1057.374,471.732,1052.471,476.635,1046.478,476.635z"/>
		<g>
			<g>
				<circle fill="#B7D3F3" cx="981.209" cy="343.619" r="3.455"/>
				<circle fill="#B7D3F3" cx="1008.651" cy="350.18" r="3.455"/>
				<circle fill="#B7D3F3" cx="1031.387" cy="370.379" r="3.455"/>
				<circle fill="#B7D3F3" cx="1041.344" cy="400.299" r="3.455"/>
				<circle fill="#B7D3F3" cx="1032.86" cy="433.369" r="3.455"/>
				<circle fill="#B7D3F3" cx="1011.166" cy="455.12" r="3.455"/>
				<circle fill="#B7D3F3" cx="981.209" cy="463.888" r="3.455"/>
			</g>
			<g>
				<circle fill="#B7D3F3" cx="953.657" cy="350.18" r="3.455"/>
				<circle fill="#B7D3F3" cx="930.921" cy="370.379" r="3.455"/>
				<circle fill="#B7D3F3" cx="920.964" cy="400.299" r="3.455"/>
				<circle fill="#B7D3F3" cx="929.447" cy="433.369" r="3.455"/>
				<circle fill="#B7D3F3" cx="951.142" cy="455.12" r="3.455"/>
			</g>
		</g>
		<g>
			<circle fill="#B7D3F3" cx="983.732" cy="400.299" r="3.455"/>
			<g>
				<rect x="983.26" y="357.139" fill="#B7D3F3" width="0.943" height="43.159"/>
			</g>
			<g>
				
					<rect x="993.322" y="376.712" transform="matrix(0.6176 0.7865 -0.7865 0.6176 688.137 -632.7455)" fill="#B7D3F3" width="2.83" height="29.089"/>
			</g>
		</g>
	</g>
	<g>
		<g>
			<path fill="#FFB27D" d="M1932.507,1606.021c-0.681,9.281-13.776,9.381-28.637,7.656c-14.861-1.725-10.91,2.037-31.718,2.326
				c-20.807,0.289-27.979-6.588-28.986-9.561c-0.897-2.639,9.124-4.859,19.845-7.469c1.349-0.324,2.702-0.664,4.055-1.006
				c12.089-3.074,20.094-12.121,30.437-20.021c9.797-7.482,22.432-34.566,22.432-34.566l28.425-1.283
				c0,0-11.971,24.275-16.467,34.742c-2.645,6.156-1.519,13.721-0.369,19.525
				C1932.138,1599.522,1932.751,1602.751,1932.507,1606.021z"/>
			<path fill="#233862" d="M1903.871,1613.677c-14.861-1.725-10.91,2.037-31.718,2.326c-20.807,0.289-27.979-6.588-28.986-9.561
				c-0.897-2.639,9.124-4.859,19.845-7.469l0.128,0.197c0,0,13.397,7.189,30.532,5.467c13.967-1.398,28.217-7.229,37.852-8.273
				c0.615,3.158,1.229,6.387,0.984,9.656C1931.827,1615.302,1918.731,1615.401,1903.871,1613.677z"/>
		</g>
		<g>
			<path fill="#FFB27D" d="M2128.818,1607.944c-0.672,9.283-13.768,9.396-28.63,7.686c-14.862-1.709-10.908,2.049-31.715,2.359
				s-27.986-6.559-28.996-9.531c-0.9-2.637,9.119-4.867,19.837-7.49c1.349-0.324,2.701-0.666,4.054-1.01
				c12.086-3.084,20.081-12.141,30.416-20.051c9.79-7.494,0.009-51.855,0.009-51.855l31.265-3.043c0,0-1.5,37.352-1.479,54.334
				c0.008,6.701,3.09,13.143,4.246,18.947C2128.442,1601.446,2129.059,1604.675,2128.818,1607.944z"/>
			<path fill="#233862" d="M2100.188,1615.63c-14.862-1.709-10.908,2.049-31.715,2.359s-27.986-6.559-28.996-9.531
				c-0.9-2.637,9.119-4.867,19.837-7.49l0.129,0.197c0,0,13.404,7.178,30.537,5.438c13.965-1.414,28.209-7.258,37.844-8.313
				c0.618,3.156,1.235,6.385,0.994,9.654C2128.146,1617.228,2115.05,1617.341,2100.188,1615.63z"/>
		</g>
		<path fill="#A9453D" d="M2037.579,841.213c-5.382-22.136,2.42-32.445,9.458-37.934c3.339-8.147,7.149-14.02,11.045-16.234
			c7.105-4.039,15.62-4.479,21.576-4.127c-1.534-1.583-4.55-2.16-4.55-2.16c3.692-0.549,11.936,3.114,11.936,3.114
			c51.372-19.794,59.446,55.846,58.366,73.42c-1.07,17.571-0.929,38.268,25.799,52.113c50.996,26.417-16.948,125.972-16.948,125.972
			c1.297-14.199-64.227-89.141-98.411-111.583c-8.322-12.252-11.28-33.894-11.501-35.598c1.437,17.161,4.372,26.786,6.995,32.206
			C2035.763,906.061,2033.455,871.627,2037.579,841.213z"/>
		<path fill="#FFB27D" d="M2057.873,924.909c-0.172,0.078,16.506,8.736,29.049,5.307c11.8-3.219,19.51-18.518,19.347-18.551
			c-4.997-0.992-6.438-7.86-6.332-37.367l-2.259,0.444l-37.982,7.521c0,0,0.864,11.954,0.89,23.213
			C2060.611,914.932,2060.037,923.901,2057.873,924.909z"/>
		<path fill="#ED975D" d="M2059.695,882.264c0,0,0.864,11.954,0.89,23.213c21.255-0.6,32.489-19.988,37.093-30.735L2059.695,882.264
			z"/>
		<path fill="#2A4E96" d="M1905.157,1558.429c-1.863,5.838,2.324,11.854,8.445,12.141l14.838,0.693l15.7,0.48
			c3.928,0.121,7.68-1.592,10.162-4.637c12.532-15.375,51.107-66.615,74.506-141.066c0.659-2.088,1.353-4.201,2.088-6.34
			c15.453-45.059,47.489-101.617,64.371-152.813c2.687-8.154,5.1-15.828,7.265-23.094c0.693-2.326,1.369-4.611,2.011-6.861
			c12.441-43.229,16.043-71.611,19.363-101.936L2002,1135.974C2002,1135.974,1976.336,1335.448,1905.157,1558.429z"/>
		<path fill="#FFFFFF" d="M2019.067,1065.925c0.308,58.01-8.51,82.898-8.51,82.898s52.195,26.52,114.23,6.998
			c0.73-0.23,51.364-11.785,51.364-11.785c-1.038-2.35-10.27-41.443-11.281-43.598c-13.098-28.125-23.043-40.46-24.596-49.106
			c-2.882-16.143-2.945-32.848-1.509-48.602c3.784-41.703,15.042-76.322,15.042-76.322c-16.902-3.846-32.731-10.604-50.324-17.201
			c-4.047,5.039-16.417,10.313-27.148,10.07c-12.356-0.271-16.363-5.563-15.723-11.338c-13.168,7.328-23.676,14.25-23.676,14.25
			c-11.191,19.439-33.889,38.318-35.533,68.138C2000.998,997.662,2019.058,1064.3,2019.067,1065.925z"/>
		<path fill="#5F9AA8" d="M2123.907,1072.392c5.329,7.543,15.546,53.383,40.964,59.146c-13.098-32.672-23.043-46.998-24.596-57.043
			c-2.882-18.751-2.945-38.155-1.509-56.454c-8.509-14.912-14.859-25.139-14.859-25.139c-0.668-2.412-13.521-42.154-17.641-6.629
			C2102.157,1021.807,2117.955,1063.954,2123.907,1072.392z"/>
		<path fill="#FFB27D" d="M2052.597,892.927c0,0,50.287,0.829,50.322-30.496c0.034-31.324,6.548-52.313-25.558-54.167
			c-32.106-1.854-38.357,10.092-40.912,20.544C2033.895,839.261,2039.517,891.903,2052.597,892.927z"/>
		<path fill="#A9453D" d="M2054.458,807.496c0,0,13.769,36.75,34.898,42.183c21.131,5.434,30.297-0.228,30.297-0.228
			s-16.208-12.876-19.572-35.352C2100.082,814.1,2064.844,790.004,2054.458,807.496z"/>
		<path fill="#A9453D" d="M2057.871,810.479c0,0-10.283,8.205-12.789,16.182c-2.508,7.977-3.635,24.397-8.421,23.839
			c0,0-10.373-24.979,1.284-39.109C2050.306,796.407,2057.871,810.479,2057.871,810.479z"/>
		<polygon fill="#FFB27D" points="1973.47,1106.188 1949.718,1178.603 1963.266,1184.036 2002.538,1120.058 		"/>
		<path fill="#F99746" d="M2037.508,917.924c0,0-28.006,11.115-36.111,28.441c-8.105,17.326-20.379,133.548-25.267,145.483
			s-8.563,21.385-8.563,21.385s14.12,11.896,28.321,12.773C2010.09,1126.882,2037.508,917.924,2037.508,917.924z"/>
		<path fill="#F99746" d="M2060.613,907.94c0,0-29.095,71.876-29.95,86.423c-0.855,14.545-3.423,237.872-3.423,237.872
			s1.711,10.268-17.969,5.99c-19.68-4.279-24.813-8.557-24.813-8.557s18.824-137.76,13.69-185.679
			c-5.135-47.916,39.36-126.066,39.36-126.066L2060.613,907.94z"/>
		<path fill="#1E3D70" d="M1928.44,1571.263l17.046,0.521c3.047,0.094,5.965-1.219,7.906-3.568
			c11.458-13.875,51.419-65.82,75.416-142.176c0.659-2.088,1.353-4.201,2.088-6.34c15.453-45.059,47.489-101.617,64.371-152.813
			c2.687-8.154,5.1-15.828,7.265-23.094c0.693-2.326,1.369-4.611,2.011-6.861l-17.951-13.623c0,0-53.898,87.277-70.583,169.412
			C2001.513,1464.065,1943.465,1549.913,1928.44,1571.263z"/>
		<path fill="#2A4E96" d="M2084.717,1400.37c-0.292,37.787,1.5,122.008,6.099,163.178c0.421,3.77,3.606,6.611,7.398,6.611h12.72
			c5.361,0,9.372-0.039,12.036-0.078c2.307-0.033,4.275-1.689,4.719-3.951c12.649-64.367,21.703-117.842,28.33-164.047
			c5.545-38.676,10.473-71.834,14.264-100.377c3.816-28.725,6.469-52.777,7.418-73.1c0.146-3.199,0.257-6.314,0.316-9.336
			c0.061-3.037,0.078-5.988,0.052-8.855l-105.331-10.268C2074.064,1270.132,2084.888,1377.157,2084.717,1400.37z"/>
		<path fill="#1E3D70" d="M2110.934,1570.159c4.816,0,8.543-0.031,11.183-0.066c2.801-0.037,5.196-2.043,5.736-4.793
			c12.563-63.996,21.566-117.211,28.166-163.217c5.545-38.676,10.473-71.834,14.264-100.377c3.816-28.725,6.469-52.777,7.418-73.1
			l-38.649,22.734c0,0,24.668,8.703,15.257,74.588C2144.895,1391.813,2124.035,1560.831,2110.934,1570.159z"/>
		<path fill="#F99746" d="M2105.96,1227.958c0,0,7.418,26.807,33.088,23.385s62.172-18.824,62.172-18.824
			s-10.97-34.662-24.608-80.201c-16.515-55.129-36.956-126.202-46.591-171.028c-2.703-12.563-4.552-23.053-5.236-30.564
			l-21.297-41.32c0,0-31.754,71.267-33.465,89.236S2105.96,1227.958,2105.96,1227.958z"/>
		<path fill="#FFB27D" d="M2131.592,995.963l-28.108-86.558c0.076,0.035,35.5,10.541,53.319,19.543c0,0,11.138,14.359,18.029,47.488
			c0,0,7.281,79.535-8.976,108.628c0,0-51.34,10.268-133.482-17.969v-18.825c0,0,89.844,4.705,108.24,6.844L2131.592,995.963z"/>
		<path fill="#ED7D2B" d="M2107.098,1036.289c1.146,29.095,7.992,85.567,69.026,115.798c0.162,0.076,0.324,0.162,0.487,0.23
			c-16.515-55.129-36.956-126.202-46.591-171.028C2118.812,998.041,2106.474,1020.271,2107.098,1036.289z"/>
		<path fill="#F99746" d="M2103.484,909.405c0,0,52.104,3.672,64.654,31.623c12.549,27.951,16.543,120.932,0.57,148.313
			c0,0-21.99,6.264-60.883-1.01c-0.477-0.088-0.956-0.18-1.438-0.273c0,0-12.407-30.376-1.283-36.366c0,0,32.8,1.711,29.377-9.127
			C2131.06,1031.727,2103.484,909.405,2103.484,909.405z"/>
		<g>
			<path fill="#A9453D" d="M1972.847,1059.9l1.535,4.933l85.497-26.597c0,0,1.141-1.299,0.578-3.023
				c-0.622-1.906-2.112-1.91-2.112-1.91L1972.847,1059.9z"/>
			<polygon fill="#A9453D" points="1966.665,1064.562 1972.847,1059.9 1974.382,1064.833 			"/>
		</g>
		<path fill="#FFB27D" d="M1953.093,1176.624c0,0-21.688,11.984-24.542,21.117c-2.854,9.133-0.894,28.252,2.55,27.967
			s8.58-20.547,11.434-21.975c2.854-1.426,6.849-5.703,6.849-2.566c0,3.139-2.854,8.846-1.427,9.701
			c1.427,0.857,5.993-7.986,9.132-9.701c3.14-1.713,4.458-15.824,7.509-19.613S1953.093,1176.624,1953.093,1176.624z"/>
		<path fill="#FFB27D" d="M2032.375,1048.27c0,0-19.396-11.945-27.533-10.109c-8.138,1.838-28.874,16.857-18.899,20.109
			s18.052-0.16,21.888,2.203c3.836,2.361,6.668,6.681,24.545,6.622C2050.25,1067.036,2032.375,1048.27,2032.375,1048.27z"/>
	</g>
	<g>
		<path fill="#163560" d="M506.979,919.93c-3.251-6.27,70.938-28.853,72.113,33.037c0,0,138.977-3.416,72.619-80.878
			c-22.973-26.817-20.609-48.99-19.92-69.63c0.698-20.643-14.309-80.635-65.75-74.594c0,0-13.472-5.481-30.284,3.241
			C497.522,750.941,411.875,942.754,506.979,919.93z"/>
		<path fill="#FFB27D" d="M734.188,989.121c0,0,9.046-13.771,16.337-14.041c7.291-0.271,20.792-4.051,19.712-1.352
			c-1.08,2.701-9.451,2.971-10.261,4.592c-0.81,1.619,12.421,4.051,16.202,4.32c3.781,0.27,12.692,0,12.422,1.891
			c-0.27,1.889-16.061,9.721-27.203,8.641c-11.142-1.08-24.914,3.24-24.914,3.24L734.188,989.121z"/>
		<path fill="#B0D0FF" d="M603.358,993.576c0,0,4.917,9.738,13.836,20.926c10.75,13.463,27.325,29.018,48.136,32.088
			c9.939,1.465,19.661-0.674,28.596-4.643c0.024-0.008,0.032-0.008,0.032-0.008c25.275-11.221,44.28-37.021,44.28-37.021
			c4.456-12.152-2.835-20.391-2.835-20.391s-51.036,11.479-55.897,9.049c-4.86-2.43-33.214-84.111-39.962-94.376
			c-6.756-10.264-29.763-15.594-29.763-15.594L603.358,993.576z"/>
		<path fill="#98BAF4" d="M617.194,1014.502c10.75,13.463,27.325,29.018,48.136,32.088c9.939,1.465,19.661-0.674,28.596-4.643
			c-0.988,0.129-26.231,3.248-36.292-14.752c-10.264-18.365-21.362-47.527-36.608-37.807
			C614.448,993.584,614.74,1004.01,617.194,1014.502z"/>
		<path fill="#233862" d="M412.951,1544.485c0,0-15.573,14.211-12.534,24.311c3.039,10.098,17.092,16.83,18.991,29.172
			c1.899,12.342,9.496,19.074,16.333,19.074s32.595,0,32.595,0s5.033-8.686-7.122-11.303c-12.154-2.619-16.737-17.121-15.978-30.586
			s-1.14-31.416-1.14-31.416l-25.828-5.984L412.951,1544.485z"/>
		<path fill="#233862" d="M544.761,1550.519c0,0-5.603,60.207,1.234,63.572l87.497-0.178c0,0,0-10.1-14.054-12.344
			s-38.743-10.471-42.921-28.797C572.34,1554.446,544.761,1550.519,544.761,1550.519z"/>
		<path fill="#FFB27D" d="M482.409,1118.581c18.005-40.379,29.023-51.969,26.919-64.503c-1.565-9.328,4.767-173.919,4.767-173.919
			c2.136-0.662,6.418-1.255,8.761-1.775c7.385-1.64,13.498-6.827,16.042-13.951c3.064-8.583,5.501-21.256,5.444-37.137l2.307,0.454
			l38.781,7.68c0,0-0.882,12.204-0.908,23.702c0,0.096-0.001,0.191-0.001,0.286c-0.047,9.985,6.503,18.798,16.097,21.567
			c4.898,1.414,9.16,2.623,9.16,2.623s14.241,40.656,16.96,82.421c2.72,41.768-25.895,59.912,0.216,143.376
			C653.612,1194.647,472.462,1140.894,482.409,1118.581z"/>
		<path fill="#E8945B" d="M585.43,835.43c0,0-0.882,12.204-0.908,23.702c-21.702-0.611-33.172-20.408-37.873-31.382L585.43,835.43z"
			/>
		<path fill="#FFB27D" d="M592.677,846.316c0,0-51.345,0.847-51.38-31.136s-6.686-53.414,26.095-55.307
			c32.781-1.893,39.164,10.305,41.772,20.977S606.032,845.272,592.677,846.316z"/>
		<path fill="#163560" d="M590.777,759.09c0,0-14.058,37.522-35.633,43.07s-30.934-0.232-30.934-0.232s16.549-13.146,19.983-36.095
			C544.194,765.833,580.172,741.231,590.777,759.09z"/>
		<path fill="#163560" d="M587.292,762.136c0,0,10.425,3.897,14.715,11.5c4.196,7.435,7.77,17.282,6.941,29.362
			c0,0,10.591-25.504-1.312-39.931C595.016,747.769,587.292,762.136,587.292,762.136z"/>
		<path fill="#EBF3FA" d="M581.505,826.476c0,0,3.543,4.661,10.631,4.326c5.709-0.271,7.912-5.224,7.912-5.224
			S589.56,823.056,581.505,826.476z"/>
		<path fill="#B0D0FF" d="M477.454,952.967c0,0-1.304,18.383,0,40.441c0.867,14.623,15.658,34.209,17.756,39.053
			c5.266,12.152,11.204,14.129,11.204,14.129l45.941,11.26l16.153,3.953l50.938-15.213c0,0,23.201-64.76,13.885-101.215
			c-9.316-36.453-23.55-61.769-23.55-61.769s-41.566,40.699-95.688-3.451L477.454,952.967z"/>
		<path fill="#F2CCAA" d="M490.9,999.377c0.867,14.621,2.211,28.24,4.31,33.084c5.266,12.152,11.204,14.129,11.204,14.129
			l45.941,11.26l19.953-5.865c0,0-66.606-10.094-59.226-67.4L490.9,999.377z"/>
		<path fill="#ED7D2B" d="M616.207,1056.418c0,0,25.226,78.521,26.846,105.255c1.62,26.732-48.221,379.768-50.226,392.086
			c-1.89,11.611-16.309,19.014-16.309,19.014s-6.631,3.912-16.095,1.238c-13.131-3.707-17.282-8.146-17.282-8.146
			s-19.634-251.783-7.483-341.725c12.15-89.941,12.293-167.722,12.293-167.722H616.207z"/>
		<path fill="#F99746" d="M509.329,1054.078c0,0-38.479,51.63-42.067,86.532c-3.587,34.9-5.628,157.496-13.271,191.52
			c-7.642,34.023-35.722,99.5-35.722,205.623c0,0,2.918,6.082,11.931,9.322c2.882,1.037,6.743,2.041,10.492,2.9
			c7.433,1.705,15.058-1.928,18.45-8.756c18.984-38.223,79.456-161.502,82.556-187.092c2.194-18.109,21.288-137.965,62.937-208.293
			c9.999-16.885-6.136-84.032-6.136-84.032L509.329,1054.078z"/>
		<path fill="#FFFFFF" d="M582.646,827.331c0,0,0.887,3.769,10.264,3.188c0,0,7.872-0.486,7.631-4.629
			C600.542,825.89,592.909,822.942,582.646,827.331z"/>
		<path fill="#233862" d="M620.236,1044.297c0,0-10.127,8.012-30.245,8.416c-24.03,0.484-83.575-6.125-83.575-6.125
			s-2.646,7.391-2.538,15.197c0,0,72.724,18.345,114.86,2.679C618.739,1064.464,624.173,1054.238,620.236,1044.297z"/>
		<g>
			<path fill="#FFFFFF" d="M584.792,1061.012c0-6.844,4.918-12.41,10.965-12.41c6.046,0,10.965,5.566,10.965,12.41
				c0,6.845-4.919,12.411-10.965,12.411C589.709,1073.423,584.792,1067.856,584.792,1061.012z M588.426,1061.012
				c0,4.841,3.289,8.776,7.331,8.776c4.042,0,7.331-3.936,7.331-8.776c0-4.84-3.289-8.777-7.331-8.777
				C591.714,1052.234,588.426,1056.172,588.426,1061.012z"/>
		</g>
		
			<rect x="460.387" y="972.328" transform="matrix(-0.7541 -0.6567 0.6567 -0.7541 211.3041 2158.9985)" fill="#B5453C" width="98.796" height="135.237"/>
		<path fill="#FFB27D" d="M523.221,1058.738c0,0,27.299,3.193,27.214,9.675c-0.085,6.48-6.803,19.793-10.174,20.385
			c-3.372,0.592-22.217-18.004-22.217-18.004L523.221,1058.738z"/>
		<path fill="#B0D0FF" d="M514.093,880.155c0,0-36.447,2.556-50.418,36.519c-13.972,33.962-40.479,90.986-40.479,100.58
			s14.807,39.164,94.331,56.169c0,0,8.226-8.652,7.727-15.495c0,0-49.641-42.639-49.508-47.623
			c0.252-9.426,8.138-21.869,51.722-65.467C539.316,932.984,514.093,880.155,514.093,880.155z"/>
	</g>
	<g>
		<g>
			<g>
				<path fill="#B0D4FF" d="M916.777,1615.185h-0.346c-2.037,0-3.674-1.676-3.627-3.711l5.5-238.406l16.203-1.891l-13.817,240.313
					C920.571,1613.563,918.854,1615.185,916.777,1615.185z"/>
			</g>
			<g>
				<path fill="#95C0F4" d="M822.358,1615.185h-0.346c-2.036,0-3.674-1.676-3.627-3.711l5.501-238.406l16.203-1.891l-13.817,240.313
					C826.152,1613.563,824.436,1615.185,822.358,1615.185z"/>
			</g>
			<g>
				<path fill="#B0D4FF" d="M1082.9,1615.185h0.346c2.036,0,3.674-1.676,3.627-3.711l-5.501-238.406l-16.203-1.891l13.817,240.313
					C1079.106,1613.563,1080.823,1615.185,1082.9,1615.185z"/>
			</g>
			<path fill="#B0D4FF" d="M811.622,1358.282v-163.367c0-28.746,23.303-52.049,52.049-52.049h117.702
				c28.746,0,52.049,23.303,52.049,52.049v169.609L811.622,1358.282z"/>
			<path fill="#95C0F4" d="M1054.51,1384.073H827.25c-8.631,0-15.628-6.998-15.628-15.629v-10.162h242.888V1384.073z"/>
			<path fill="#B0D4FF" d="M1081.743,1384.073H909.812c-6.382,0-11.556-5.174-11.556-11.557v-2.68
				c0-6.381,5.174-11.555,11.556-11.555h171.931c6.382,0,11.556,5.174,11.556,11.555v2.68
				C1093.299,1378.899,1088.125,1384.073,1081.743,1384.073z"/>
		</g>
		<g>
			<path fill="#233862" d="M1075.068,1317.575c-16.861,29.348-38.069,40.676-38.069,40.676h-88.23
				C948.769,1358.251,1087.931,1295.187,1075.068,1317.575z"/>
			<g>
				<path fill="#FFB27D" d="M1007.304,1544.638c-2.299,2.637-2.592,5.58-1.454,8.725c0.001,0.014,0.008,0.031,0.022,0.043
					c2.105,5.814,9.057,12.311,17.132,18.795c1.032,0.832,1.95,1.59,2.75,2.291c0.21,0.186,0.42,0.369,0.618,0.555
					c0.162,0.143,0.319,0.291,0.475,0.428c7.531,6.943,4.697,8.533,18.226,22.619c15.426,16.051,26.048,16.34,29.069,14.877
					c2.557-1.246-2.637-9.758-8.392-19.326c-0.279-0.461-0.553-0.93-0.838-1.396c-0.767-1.271-1.528-2.563-2.289-3.842
					c-6.744-11.516-5.012-16.918-3.414-34.055c1.299-13.928,21.665-77.803,21.665-77.803l-29.563-5.092
					c0,0-8.903,50.863-18.712,58.697c-5.246,4.174-11.117,4.227-16.158,7.322c-0.356,0.215-0.706,0.436-1.049,0.662
					C1012.528,1540.036,1009.61,1541.997,1007.304,1544.638z"/>
				<path fill="#233862" d="M1007.304,1544.638c-2.299,2.637-2.592,5.58-1.454,8.725c0.001,0.014,0.008,0.031,0.022,0.043
					c2.577,5.811,9.354,12.271,17.161,18.734c1.02,0.848,1.92,1.625,2.721,2.352c0.21,0.186,0.42,0.369,0.618,0.555
					c0.162,0.143,0.319,0.291,0.475,0.428c7.531,6.943,4.697,8.533,18.226,22.619c15.426,16.051,26.048,16.34,29.069,14.877
					c2.557-1.246-2.637-9.758-8.392-19.326c-3.004-1.102-16.953-6.768-27.499-20.264c-9.289-11.854-15.483-27.082-21.809-35.904
					c-0.356,0.215-0.706,0.436-1.049,0.662C1012.528,1540.036,1009.61,1541.997,1007.304,1544.638z"/>
				<path fill="#FFB27D" d="M1245.682,1526.175c1.826,9.125,14.833,7.604,29.366,4.051c14.532-3.551,11.078,0.672,31.761-1.617
					c20.683-2.291,26.948-10.002,27.579-13.078c0.564-2.729-9.654-3.691-20.617-4.953c-1.378-0.154-2.763-0.326-4.147-0.496
					c-12.376-1.553-21.439-9.539-32.681-16.098c-10.648-6.213-26.54-31.525-26.54-31.525l-28.364,2.248
					c0,0,14.884,22.607,20.642,32.436c3.386,5.781,3.206,13.428,2.784,19.33C1245.244,1519.681,1245.035,1522.96,1245.682,1526.175z
					"/>
				<path fill="#233862" d="M1275.047,1530.226c14.532-3.551,11.078,0.672,31.761-1.617c20.683-2.291,26.948-10.002,27.579-13.078
					c0.564-2.729-9.654-3.691-20.617-4.953l-0.102,0.211c0,0-12.404,8.795-29.621,9.207c-14.031,0.34-28.895-3.68-38.584-3.523
					c-0.22,3.209-0.429,6.488,0.218,9.703C1247.507,1535.3,1260.514,1533.778,1275.047,1530.226z"/>
				<path fill="#233862" d="M1136.981,1344.806l-26.516,71.35l-34.618,93.164c0,0-9.395,0.906-18.391-1.682
					c-8.283-2.395-17.787-8.656-17.787-8.656s9.613-100.031,27.544-157.453c4.595-14.74,9.746-26.662,15.429-33.373
					C1110.441,1275.304,1136.981,1344.806,1136.981,1344.806z"/>
				<path fill="#2B478B" d="M1110.022,1231.491c-17.371-5.604-66.917,1.59-116.688,11.334l-10.42-17.189l-107.502-8.395
					c0,0-35.474,78.668-16.053,128.793c2.854,7.367,8.526,12.092,18.194,12.248c0.004,0.004,1.566-0.004,1.57,0
					c0,0,63.983-0.037,84.759-0.037c53.462,0,113.145-36.75,120.865-38.295c12.637-2.527,17.692,22.746,30.329,49.285
					c12.637,26.537,118.789,117.525,118.789,117.525s16.314,0.162,23.055-2.365c7.247-2.719,9.898-6.25,9.898-6.25
					S1149.197,1244.128,1110.022,1231.491z"/>
				<path fill="#233862" d="M978.685,912.61c-13.771-7.232-34.725-8.211-38.129-8.667c-40.737-5.475-65.254,53.72-66.696,71.655
					c-2.658,33.061-20.147,38.1-44.764,58.805c-49.359,41.517-34.885,89.757-7.895,107.681c16.194,10.756,44.738,0,44.738,0
					c0.403,0.281,78.063-43.414,116.344-64.492C1039.67,1069.433,1013.777,931.038,978.685,912.61z"/>
				<path fill="#FFB27D" d="M950.196,1059.648c0.169,0.109-18.835,6.597-31.542,0.969c-11.955-5.283-21.01-24.949-20.833-24.961
					c5.438-0.25,11.408-5.004,16.006-36.201l2.316,0.832l38.934,14.01c0,0-2.821,12.492-4.646,24.387
					C948.895,1048.67,948.07,1058.236,950.196,1059.648z"/>
				<path fill="#ED975D" d="M955.077,1014.297c0,0-2.821,12.492-4.646,24.387c-22.362-4.025-31.139-26.307-34.288-38.396
					L955.077,1014.297z"/>
				<path fill="#FFB27D" d="M960.875,1026.695c0,0-53.269-7.15-48.306-40.254c4.963-33.104,1.43-56.322,35.651-53.158
					c34.221,3.166,38.919,16.787,39.951,28.238C989.202,972.975,974.859,1027.703,960.875,1026.695z"/>
				<path fill="#233862" d="M986.229,943.377c0,0-34.1,29.385-57.294,31.754c-23.195,2.369-31.976-5.076-31.976-5.076
					s13.672-11.352,21.899-29.67c2.425-5.4,7.548-9.105,13.445-9.613C948.866,929.342,980.262,928.69,986.229,943.377z"/>
				<path fill="#233862" d="M964.914,940.744c0,0,11.407,11.031,15,19.211c3.467,7.895,4.507,26.777,1.746,34.277
					c0,0,17.773-34.561,7.711-51.352C978.7,925.075,964.914,940.744,964.914,940.744z"/>
				<path fill="#FFFFFF" d="M995.051,1138.118c-1.611,107.83-0.442,85.297-12.237,95.529c-2.842,2.463-10.832,3.932-21.348,4.627
					c-33.064,2.193-91.186-3.254-93.397-9.363c-7.626-21.143-2.242-27.711-8.605-60.08c-0.664-3.443-1.484-7.17-2.448-11.227
					c-5.305-22.232-10.469-29.797,8.353-65.514c17.068-32.354,34.8-58.612,36.396-57.665c45.032,26.732,48.664,4.264,48.664,4.264
					S995.841,1085.522,995.051,1138.118z"/>
				<path fill="#2B478B" d="M1110.465,1416.155l-34.618,93.164c0,0-9.395,0.906-18.391-1.682
					c-8.283-2.395-17.787-8.656-17.787-8.656s9.613-100.031,27.544-157.453L1110.465,1416.155z"/>
				<path fill="#FFFFFF" d="M950.431,1038.684c0,0,46.337,7.855,51.778,27.808c5.441,19.949,37.461,137.234,37.461,137.234
					s-23.556,4.232-34.438-6.648c-10.882-10.883-37.866-100.963-37.866-100.963L950.431,1038.684z"/>
				<path fill="#EBF3FF" d="M961.466,1238.274c-33.064,2.193-91.186-3.254-93.397-9.363c-7.626-21.143-2.242-27.711-8.605-60.08
					l15.947-44.906c0,0-2.637,50.006,12.111,63.158c14.732,13.152,60.38,25.391,67.549,36.379
					C958.529,1228.737,960.803,1234.026,961.466,1238.274z"/>
				<path fill="#FFB27D" d="M923.583,1217.241c0,0,32.62-7.264,37.883-4.367c5.263,2.895,18.126,13.436,19.737,17.105
					c1.61,3.668-11.718-2.785-16.053-3.947c-2.807-0.754-10.198,1.814-13.856,3.033c-15.396,5.133-24.829,2.492-24.829,2.492
					L923.583,1217.241z"/>
				<path fill="#FFFFFF" d="M901.738,1034.402c0,0-43.8,2.697-58.962,23.846c-21.344,29.771-63.685,156.638-39.418,173.56
					c27.327,19.055,124.372,4.984,124.372,4.984s3.229-15.096-1.264-22.396c-4.493-7.303-77.511-19.098-80.881-22.467
					c-3.37-3.371,42.126-65.717,42.126-75.826C887.71,1105.991,901.738,1034.402,901.738,1034.402z"/>
				<path fill="#FFB27D" d="M963.045,1221.952c0,0,6.835,8.816,9.075,9.869c2.241,1.053,3.688,0.789,3.688,0.789l-4.605-8.289
					L963.045,1221.952z"/>
				<path fill="#FFB27D" d="M961.466,1212.874l19.872,9.648c0,0-0.845,1.383-3.292,1.271c-2.447-0.111-8.619-2.367-8.619-2.367
					L961.466,1212.874z"/>
			</g>
			<g>
				<g>
					<polygon fill="#F99746" points="972.121,1245.327 1129.31,1245.327 1176.595,1127.741 1019.648,1127.741 					"/>
					<polygon fill="#ED7D2B" points="1131.152,1240.745 923.583,1240.745 923.583,1245.327 1129.31,1245.327 					"/>
				</g>
				<path fill="#FFFFFF" d="M1089.63,1186.534c1.185-4.135-1.205-7.484-5.338-7.484c-4.133,0-8.444,3.35-9.63,7.484
					c-1.185,4.133,1.205,7.484,5.338,7.484C1084.133,1194.019,1088.445,1190.667,1089.63,1186.534z"/>
			</g>
		</g>
	</g>
	<g>
		<g>
			<path fill="#78ACEA" d="M1793.102,1619.538h0.458c2.692,0,4.858-2.348,4.796-5.197l-7.274-333.801l-21.427-2.645l18.272,336.469
				C1788.084,1617.269,1790.355,1619.538,1793.102,1619.538z"/>
		</g>
		<g>
			<path fill="#78ACEA" d="M924.364,1619.538h-0.458c-2.693,0-4.859-2.348-4.796-5.197l7.274-333.801l21.427-2.645l-18.272,336.469
				C929.381,1617.269,927.111,1619.538,924.364,1619.538z"/>
		</g>
		<path fill="#78ACEA" d="M1818.904,1286.681H902.156c-7.509,0-13.597-6.088-13.597-13.596v-13.086
			c0-7.51,6.088-13.598,13.597-13.598h916.748c7.51,0,13.598,6.088,13.598,13.598v13.086
			C1832.501,1280.593,1826.414,1286.681,1818.904,1286.681z"/>
	</g>
	<path fill="#DFEDFB" d="M702.365,674.306c-3.463-85.709,68.375-123.787,141.83-123.787s153.39,19.032,160.315,133
		c4.456,73.319-34.63,118.434-147.177,118.434c-37.957,0-67.457-5.987-90.052-16.664l-56.259,49.991l27.647-69.099
		C714.178,743.411,703.86,711.292,702.365,674.306z"/>
	<g>
		<path fill="#233862" d="M2371.865,1619.171c0,0,2.067-16.1,6.854-25.674c4.787-9.572,35.248-3.48,35.248-3.48
			s6.092,5.221,7.397,29.59L2371.865,1619.171z"/>
		<path fill="#233862" d="M2268.083,1618.954c7.158-4.369,3.085-36.959,3.085-36.959s-33.352-26.682-37.938-6.254
			s-31.685,29.6-47.109,32.102c-10.647,1.727-13.944,7.623-14.966,11.111H2268.083z"/>
		<path fill="#213F7A" d="M2337.166,1381.913c-1.357,7.479-2.219,13.615-2.447,18.014c-3.101,60.477-50.906,198.752-59.457,201.977
			c-13.231,4.992-34.066-5.621-44.967-9.094c-4.518-1.441-7.565-5.998-6.561-10.619c23.675-108.838,32.376-265.559,35.541-358.344
			c1.6-46.736,9.622-79.02,9.622-79.02s116.598-31.109,117.289,8.244C2386.799,1187.894,2347.564,1324.466,2337.166,1381.913z"/>
		<path fill="#233862" d="M2337.166,1381.913l-77.891-158.066c1.6-46.736,9.622-79.02,9.622-79.02s116.598-31.109,117.289,8.244
			C2386.799,1187.894,2347.564,1324.466,2337.166,1381.913z"/>
		<path fill="#213F7A" d="M2311.224,1153.208l61.638,446.736c0,0,27.068,6.527,48.121,1.305c0,0,18.046-237.594,16.542-295.033
			c-1.504-57.441,12.951-153.701-3.299-164.316C2417.976,1131.282,2311.224,1153.208,2311.224,1153.208z"/>
		<path fill="#B0D0FF" d="M2446.24,1145.765c0.296,4.037-2.286,7.709-6.173,8.836c-8.599,2.496-18.511,4.232-37.631,8.193
			c-17.956,3.73-42.116,7.031-71.802,7.215c-47.215,0.301-65.09-15.973-65.09-15.973c-2.034,0.037,1.073-9.846,3.874-56.828
			c0.948-15.916,1.864-36.091,2.524-61.587c0.596-22.943,0.998-50.197,1.035-82.533c0.051-38.894,60.256-80.741,61.367-80.741
			l0.013,0.019c0,5.601,8.827,15.935,22.421,16.827c16.136,1.055,35.932-6.976,35.932-16.268c0-0.095,29.17,46.662,39.53,96.481
			C2437.474,994.482,2435.357,993.811,2446.24,1145.765z"/>
		<path fill="#B0D0FF" d="M2334.346,872.35c0,0-55.984-0.476-69.458,18.421c-13.473,18.896-43.015,120.548-27.6,154.372
			c15.417,33.825,44.263-13.992,60.271-34.711C2313.57,989.715,2334.346,872.35,2334.346,872.35z"/>
		<path fill="#FFB27D" d="M2333.774,863.805l0.032,5.787c0,0-1.577,18.099,20.71,20.742c22.287,2.65,38.828-3.38,38.225-17.347
			c-2.008-10.814-3.869-21.918-4.019-30.865c-0.055-3.326,0.173-6.854,0.793-10.838l-43.186-0.863l-12.721,2.078L2333.774,863.805z"
			/>
		<path fill="#E2915A" d="M2333.609,832.499l0.165,31.306c4.588,2.133,9.764,3.435,15.566,3.435
			c19.849,0,32.678-14.555,39.382-25.117c-0.055-3.326,0.173-6.854,0.793-10.838l-43.186-0.863L2333.609,832.499z"/>
		<path fill="#FFB27D" d="M2392.824,824.334c-5.01,26.966-39.807,26.081-54.844,24.385c-4.231-0.471-6.894-1.01-6.894-1.01
			c-4.771-1.275-7.434-8.791-8.671-18.635c-2.455-19.482,0.646-48.082,3.937-55.396c4.954-11.006,14.284-22.911,49.325-14.321
			C2410.724,767.953,2399.253,789.783,2392.824,824.334z"/>
		<path fill="#98BAF4" d="M2277.097,948.105c0,0-21.652,47.818-21.022,62.15c0,0,10.722-0.367,21.022,2.703
			C2294.024,1018.006,2277.097,948.105,2277.097,948.105z"/>
		<path fill="#233862" d="M2315.599,748.011c0,0,15.424-1.187,33.616-9.096c14.765-6.42,33.394,0.65,39.44,3.836
			c-0.162-0.975-0.552-2.305-1.475-3.638c0,0,2.715,1.925,3.115,4.616c0.279,0.206,0.404,0.348,0.332,0.396
			c0,0,3.078-0.563,5.056,0.327c0,0-1.384-0.198-1.878,0.692c-0.053,0.094-0.131,0.174-0.223,0.245
			c23.033,11.129,25.16,47.53,17.748,55.953c-8.917,10.134-22.383,33.063-22.383,33.063s-1.127-5.5,0.495-14.418
			c1.621-8.917-6.08-8.917-15.809-12.971s-1.621-15.403-10.134-22.294c-8.512-6.891-39.724-2.837-39.318-8.106
			C2312.598,772.395,2315.599,749.197,2315.599,748.011z"/>
		<path fill="#98BAF4" d="M2399.88,1037.68c-9.141,36.706-107.991,55.673-130.462,59.528c0.948-15.916,1.864-36.091,2.524-61.587
			L2399.88,1037.68z"/>
		<path fill="#FFB27D" d="M2378.182,1049.609c0.942,0,21.976-3.139,25.742-5.023c3.767-1.883,20.997-26.369,9.714-32.648
			s-41.574,18.836-41.574,18.836L2378.182,1049.609z"/>
		<path fill="#B0D0FF" d="M2250.253,1056.885c0,0,81.348,4.414,135.939-7.275c0,0,1.377-15.771-15.779-22.777
			c0,0-85.085-18.033-105.525-13.01C2244.449,1018.844,2250.253,1056.885,2250.253,1056.885z"/>
		<path fill="#B0D0FF" d="M2437.069,993.045c-16.883,20.355-38.952,36.975-63.282,40.867l-0.006-0.006
			c-0.201-0.307-7.365-11.182-6.021-27.168c0.622-7.395,3.064-15.891,8.859-24.938c1.783-2.781,3.372-6.033,4.784-9.645
			c13.286-33.898,11.308-99.231,11.308-99.231s56.42,5.908,74,31.021C2477.478,919.329,2463.747,960.861,2437.069,993.045z"/>
		<path fill="#E2915A" d="M2337.98,848.72c-4.231-0.471-6.894-1.01-6.894-1.01c-4.771-1.275-7.434-8.791-8.671-18.635
			c8.947,2.204,13.047,9.116,14.755,12.061C2337.943,842.46,2338.099,845.431,2337.98,848.72z"/>
		<path fill="#FFB27D" d="M2315.25,863.974c0,0-19.485-32.153-4.332-33.553c15.152-1.398,21.24,8.856,23.429,12.623
			c2.188,3.768-0.572,20.761-0.572,20.761L2315.25,863.974z"/>
		<path fill="#B0D0FF" d="M2389.515,1005.658c-0.597,4.076-1.814,7.824-3.321,11.164c-4.76,10.566-12.407,17.09-12.407,17.09
			l-0.006-0.006c-50.605-22.842-60.846-101.279-62.56-144.375c-0.69-17.323,0-28.938,0-28.938
			c22.829-7.559,29.245,5.576,29.245,5.576s26.954,64.097,40.937,105.987C2386.752,988.186,2390.199,1000.969,2389.515,1005.658z"/>
		<path fill="#98BAF4" d="M2437.069,993.045c-16.883,20.355-38.952,36.975-63.282,40.867l-0.006-0.006
			c-50.605-22.842-60.846-101.279-62.56-144.375c0,0,23.946,86.852,56.538,117.207c5.89,5.494,12.068,9.137,18.435,10.084
			c0,0,41.1-11.615,49.72-22.553C2436.529,993.484,2436.906,993.096,2437.069,993.045z"/>
	</g>
	<g>
		<g>
			<polygon fill="#2B478B" points="1515.355,1246.401 1358.167,1246.401 1310.88,1128.815 1467.828,1128.815 			"/>
			<polygon fill="#2B478B" points="1356.324,1241.821 1563.892,1241.821 1563.892,1246.401 1358.167,1246.401 			"/>
		</g>
		<path fill="#FFFFFF" d="M1397.846,1187.608c-1.186-4.133,1.204-7.484,5.338-7.484c4.133,0,8.444,3.352,9.63,7.484
			c1.186,4.135-1.205,7.484-5.338,7.484C1403.342,1195.093,1399.031,1191.743,1397.846,1187.608z"/>
	</g>
</g>
</svg>
